<svg id="svg" version="1.1" xmlns="http://www.w3.org/2000/svg" xmlns:xlink="http://www.w3.org/1999/xlink" width="400" height="400" viewBox="0, 0, 400,400"><g id="svgg"><path id="path0" d="M158.792 92.190 C 158.788 92.526,158.785 99.460,158.785 107.600 C 158.785 115.740,158.788 124.110,158.792 126.200 L 158.800 130.000 163.551 130.000 C 169.511 130.000,169.334 129.826,169.372 135.727 C 169.399 140.116,169.418 140.203,170.346 140.334 C 171.717 140.528,172.303 139.763,171.029 139.443 L 170.000 139.185 170.000 134.204 L 170.000 129.224 164.900 129.112 L 159.800 129.000 159.800 110.800 L 159.800 92.600 165.700 92.489 L 171.600 92.379 171.612 94.289 C 171.621 95.651,171.730 96.019,171.994 95.568 C 172.197 95.221,172.318 94.231,172.263 93.368 L 172.163 91.800 165.482 91.690 C 159.717 91.596,158.799 91.664,158.792 92.190 M221.200 91.989 C 221.200 92.216,223.483 92.424,226.700 92.489 L 232.200 92.600 232.406 94.000 C 232.645 95.632,233.200 94.771,233.200 92.767 L 233.200 91.600 227.200 91.600 C 223.583 91.600,221.200 91.754,221.200 91.989 M92.602 95.197 C 92.467 95.415,92.541 95.910,92.766 96.297 C 93.155 96.965,93.176 96.965,93.188 96.300 C 93.195 95.915,93.470 95.600,93.800 95.600 C 94.130 95.600,94.400 95.420,94.400 95.200 C 94.400 94.682,92.922 94.679,92.602 95.197 M132.400 95.215 C 132.400 95.337,135.502 95.489,139.293 95.553 C 143.085 95.616,146.325 95.754,146.493 95.858 C 146.662 95.962,146.800 99.907,146.800 104.624 C 146.800 110.075,146.946 113.200,147.200 113.200 C 147.455 113.200,147.600 109.860,147.600 103.979 L 147.600 94.757 140.000 94.875 C 135.820 94.939,132.400 95.092,132.400 95.215 M245.200 104.000 C 245.200 109.867,245.345 113.200,245.600 113.200 C 245.854 113.200,246.000 110.110,246.000 104.731 C 246.000 97.413,246.090 96.164,246.662 95.531 C 247.288 94.840,247.266 94.800,246.262 94.800 L 245.200 94.800 245.200 104.000 M297.692 95.275 C 297.939 96.017,298.800 96.140,298.800 95.433 C 298.800 95.085,298.515 94.800,298.167 94.800 C 297.818 94.800,297.605 95.014,297.692 95.275 M232.427 108.800 C 232.466 116.069,232.655 122.000,232.848 122.000 C 233.043 122.000,233.200 116.122,233.200 108.800 C 233.200 99.824,233.065 95.600,232.779 95.600 C 232.491 95.600,232.380 99.780,232.427 108.800 M92.602 103.197 C 92.467 103.415,92.541 103.910,92.766 104.297 C 93.117 104.900,93.177 104.844,93.188 103.900 C 93.201 102.750,93.016 102.528,92.602 103.197 M171.720 106.000 C 171.720 107.210,171.795 107.705,171.887 107.100 C 171.978 106.495,171.978 105.505,171.887 104.900 C 171.795 104.295,171.720 104.790,171.720 106.000 M83.738 105.017 C 83.608 105.357,83.638 105.762,83.805 105.917 C 83.973 106.073,84.190 105.975,84.288 105.700 C 84.386 105.425,85.002 105.200,85.657 105.200 C 86.349 105.200,86.744 105.032,86.600 104.800 C 86.204 104.159,84.003 104.326,83.738 105.017 M308.400 118.400 C 308.400 126.933,308.541 131.600,308.800 131.600 C 309.059 131.600,309.200 126.933,309.200 118.400 C 309.200 109.867,309.059 105.200,308.800 105.200 C 308.541 105.200,308.400 109.867,308.400 118.400 M180.043 109.059 C 179.634 109.522,179.504 110.784,179.554 113.844 L 179.620 118.000 175.610 118.000 C 172.312 118.000,171.600 118.107,171.600 118.600 C 171.600 119.098,172.376 119.200,176.180 119.200 C 179.996 119.200,180.821 119.309,181.125 119.851 C 181.374 120.297,181.578 120.360,181.768 120.051 C 182.133 119.461,183.412 119.476,184.382 120.082 C 184.986 120.459,185.585 120.452,187.145 120.053 C 188.589 119.683,192.126 119.578,200.007 119.671 L 210.878 119.800 210.739 123.994 C 210.615 127.734,210.676 128.202,211.300 128.323 C 211.934 128.446,212.000 128.023,212.000 123.829 L 212.000 119.200 214.900 119.163 C 216.495 119.143,218.565 119.156,219.500 119.193 C 220.809 119.245,221.200 119.116,221.200 118.630 C 221.200 118.100,220.590 118.000,217.371 118.000 C 212.378 118.000,212.400 118.024,212.400 112.629 L 212.400 108.400 196.500 108.415 C 182.562 108.429,180.531 108.508,180.043 109.059 M211.200 114.000 L 211.200 118.400 196.000 118.400 L 180.800 118.400 180.800 114.000 L 180.800 109.600 196.000 109.600 L 211.200 109.600 211.200 114.000 M102.899 181.500 L 103.000 249.800 196.400 249.800 L 289.800 249.800 289.901 181.500 C 289.968 136.036,289.868 113.200,289.601 113.200 C 289.335 113.200,289.200 136.004,289.200 181.200 L 289.200 249.200 196.400 249.200 L 103.600 249.200 103.600 181.600 L 103.600 114.000 104.576 114.000 C 105.113 114.000,105.664 113.820,105.800 113.600 C 105.949 113.358,105.404 113.200,104.422 113.200 L 102.798 113.200 102.899 181.500 M220.578 116.035 C 220.431 116.274,220.510 116.670,220.755 116.915 C 221.082 117.242,221.200 117.126,221.200 116.480 C 221.200 115.514,220.992 115.365,220.578 116.035 M114.800 122.519 C 113.466 123.624,113.200 124.795,113.200 129.571 C 113.200 132.327,113.369 134.457,113.600 134.600 C 113.820 134.736,114.000 135.341,114.000 135.944 C 114.000 136.547,114.216 137.256,114.480 137.520 C 115.059 138.099,119.451 138.165,119.800 137.600 C 119.953 137.352,119.207 137.200,117.831 137.200 C 115.087 137.200,115.130 137.328,115.285 129.800 L 115.400 124.200 120.908 124.089 C 125.550 123.995,126.453 124.073,126.651 124.589 C 127.042 125.608,127.600 125.274,127.600 124.021 L 127.600 122.842 122.100 122.716 C 119.075 122.647,116.330 122.462,116.000 122.306 C 115.670 122.150,115.130 122.246,114.800 122.519 M275.826 122.358 C 275.704 122.555,275.899 122.829,276.260 122.968 C 277.038 123.266,277.383 123.020,277.016 122.427 C 276.695 121.906,276.125 121.874,275.826 122.358 M270.800 126.000 C 270.800 127.867,270.967 129.200,271.200 129.200 C 271.420 129.200,271.602 128.165,271.605 126.900 C 271.608 125.635,271.719 124.195,271.852 123.700 C 272.029 123.038,271.922 122.800,271.447 122.800 C 270.905 122.800,270.800 123.320,270.800 126.000 M232.702 125.800 C 232.807 126.350,232.962 126.800,233.047 126.800 C 233.131 126.800,233.200 126.350,233.200 125.800 C 233.200 125.250,233.045 124.800,232.855 124.800 C 232.666 124.800,232.597 125.250,232.702 125.800 M126.885 127.927 C 126.948 129.023,127.135 129.837,127.300 129.736 C 127.755 129.458,127.659 126.483,127.185 126.191 C 126.915 126.024,126.810 126.627,126.885 127.927 M133.200 126.389 C 133.200 126.651,135.236 126.800,138.800 126.800 L 144.400 126.800 144.400 132.080 C 144.400 135.706,144.529 137.231,144.812 136.948 C 145.065 136.695,145.181 134.537,145.112 131.368 L 145.000 126.200 139.100 126.089 C 135.259 126.017,133.200 126.122,133.200 126.389 M181.055 126.600 C 180.782 127.312,181.137 128.400,181.643 128.400 C 181.839 128.400,182.000 127.860,182.000 127.200 C 182.000 125.936,181.445 125.583,181.055 126.600 M200.550 128.481 C 200.387 128.745,200.300 130.705,200.357 132.837 C 200.429 135.499,200.297 136.975,199.937 137.552 C 199.480 138.284,199.527 138.504,200.307 139.284 L 201.200 140.178 201.205 134.989 C 201.208 132.135,201.319 129.395,201.452 128.900 C 201.707 127.947,201.065 127.648,200.550 128.481 M191.600 129.600 C 191.600 130.330,191.766 130.745,192.000 130.600 C 192.220 130.464,192.400 130.014,192.400 129.600 C 192.400 129.186,192.220 128.736,192.000 128.600 C 191.766 128.455,191.600 128.870,191.600 129.600 M232.200 128.800 C 232.059 129.029,230.012 129.200,227.425 129.200 C 224.288 129.200,222.772 129.354,222.489 129.700 C 221.853 130.478,221.677 140.400,222.300 140.400 C 222.674 140.400,222.800 139.093,222.800 135.200 L 222.800 130.000 228.000 130.000 C 232.933 130.000,233.200 129.959,233.200 129.200 C 233.200 128.356,232.618 128.124,232.200 128.800 M127.067 131.067 C 126.656 131.478,126.751 134.323,127.185 134.591 C 127.416 134.734,127.536 134.023,127.485 132.814 C 127.438 131.707,127.385 130.800,127.367 130.800 C 127.348 130.800,127.213 130.920,127.067 131.067 M131.745 134.600 C 131.586 135.015,131.822 135.594,132.370 136.133 L 133.251 137.000 133.126 135.631 C 132.989 134.146,132.157 133.525,131.745 134.600 M239.067 134.267 C 238.920 134.413,238.800 137.833,238.800 141.867 L 238.800 149.200 240.200 149.200 C 241.730 149.200,242.079 148.606,240.790 148.197 C 240.016 147.951,239.985 147.664,240.090 141.670 L 240.200 135.400 246.500 135.290 L 252.800 135.180 252.825 137.490 C 252.907 145.162,252.751 147.813,252.190 148.240 C 251.469 148.788,251.844 149.200,253.067 149.200 L 254.000 149.200 254.000 142.171 C 254.000 136.613,253.880 135.023,253.429 134.571 C 252.827 133.970,239.643 133.691,239.067 134.267 M126.800 136.600 C 126.800 136.930,126.980 137.200,127.200 137.200 C 127.420 137.200,127.600 136.930,127.600 136.600 C 127.600 136.270,127.420 136.000,127.200 136.000 C 126.980 136.000,126.800 136.270,126.800 136.600 M173.900 139.889 C 174.615 139.978,175.785 139.978,176.500 139.889 C 177.215 139.801,176.630 139.728,175.200 139.728 C 173.770 139.728,173.185 139.801,173.900 139.889 M179.600 143.776 C 179.600 146.023,179.427 147.660,179.173 147.817 C 178.938 147.962,178.842 148.333,178.960 148.640 C 179.137 149.101,178.328 149.200,174.411 149.200 C 169.775 149.200,168.556 149.516,169.510 150.470 C 169.776 150.736,169.999 150.725,170.178 150.435 C 170.349 150.159,172.272 150.000,175.424 150.000 L 180.400 150.000 180.400 145.000 C 180.400 141.933,180.245 140.000,180.000 140.000 C 179.762 140.000,179.600 141.525,179.600 143.776 M212.122 140.280 C 211.860 140.374,211.710 140.665,211.789 140.926 C 211.868 141.187,212.043 141.902,212.178 142.516 C 212.503 143.997,213.200 143.509,213.200 141.800 C 213.200 140.384,212.922 139.992,212.122 140.280 M256.867 141.235 C 256.485 141.851,256.457 142.217,256.767 142.527 C 257.078 142.838,257.200 142.711,257.200 142.080 C 257.200 141.246,257.369 141.200,260.418 141.200 L 263.637 141.200 263.518 143.900 L 263.400 146.600 260.300 146.717 C 255.966 146.880,256.387 147.600,260.816 147.600 L 264.431 147.600 264.316 144.100 L 264.200 140.600 260.800 140.488 C 257.690 140.385,257.355 140.448,256.867 141.235 M308.470 147.199 C 308.639 153.949,309.200 153.950,309.200 147.200 C 309.200 143.755,309.055 142.000,308.770 142.000 C 308.478 142.000,308.381 143.673,308.470 147.199 M124.490 150.300 L 124.600 157.000 129.600 157.114 C 136.793 157.277,136.400 157.692,136.400 149.932 L 136.400 143.600 130.390 143.600 L 124.381 143.600 124.490 150.300 M212.200 144.800 C 212.040 145.058,212.090 145.450,212.310 145.670 C 212.576 145.936,212.806 145.913,213.000 145.600 C 213.160 145.342,213.110 144.950,212.890 144.730 C 212.624 144.464,212.394 144.487,212.200 144.800 M135.111 150.629 L 135.221 156.257 130.511 156.229 L 125.800 156.200 125.687 151.021 C 125.540 144.226,125.128 144.752,130.493 144.887 L 135.000 145.000 135.111 150.629 M141.999 145.900 C 141.999 146.510,142.422 146.600,145.299 146.600 L 148.600 146.600 148.600 149.200 L 148.600 151.800 145.493 151.917 C 142.600 152.026,142.364 151.973,142.059 151.149 C 141.824 150.511,141.644 150.405,141.419 150.770 C 140.478 152.292,142.002 153.200,145.496 153.200 C 149.853 153.200,150.000 153.051,150.000 148.629 L 150.000 145.200 146.000 145.200 C 142.457 145.200,142.000 145.280,141.999 145.900 M212.200 148.000 C 212.040 148.258,212.090 148.650,212.310 148.870 C 212.576 149.136,212.806 149.113,213.000 148.800 C 213.160 148.542,213.110 148.150,212.890 147.930 C 212.624 147.664,212.394 147.687,212.200 148.000 M242.000 148.816 C 242.000 149.083,243.661 149.210,246.653 149.172 C 249.490 149.136,251.090 148.976,250.753 148.762 C 249.951 148.254,242.000 148.303,242.000 148.816 M213.200 149.600 C 212.794 149.863,214.118 149.990,217.300 149.994 L 222.000 150.000 222.013 154.900 C 222.024 159.329,222.083 159.724,222.622 159.011 C 222.949 158.578,223.124 157.979,223.009 157.680 C 222.895 157.382,222.784 155.529,222.763 153.563 C 222.730 150.525,222.614 149.929,221.989 149.594 C 221.041 149.086,213.987 149.091,213.200 149.600 M191.600 151.200 C 191.600 151.442,193.333 151.600,196.000 151.600 L 200.400 151.600 200.400 156.400 L 200.400 161.200 205.600 161.200 L 210.800 161.200 210.800 165.600 L 210.800 170.000 196.433 170.000 C 185.300 170.000,182.027 169.887,181.892 169.500 C 181.764 169.134,181.506 169.187,180.927 169.700 C 180.280 170.274,179.366 170.400,175.869 170.400 L 171.600 170.400 171.600 175.139 L 171.600 179.879 179.146 180.157 C 183.296 180.309,191.621 180.419,197.646 180.400 C 203.670 180.380,209.095 180.373,209.700 180.382 L 210.800 180.400 210.800 184.800 C 210.800 189.110,210.354 190.344,209.373 188.756 C 209.189 188.458,208.289 188.401,206.649 188.584 C 205.302 188.734,203.339 188.904,202.286 188.962 C 199.883 189.094,199.265 189.626,199.975 190.954 C 200.532 191.993,200.439 197.295,199.854 197.879 C 199.677 198.055,197.839 198.169,195.770 198.132 C 193.701 198.095,191.912 198.219,191.795 198.408 C 191.678 198.598,193.741 198.808,196.380 198.876 L 201.177 199.000 201.289 194.600 L 201.400 190.200 206.688 190.088 L 211.976 189.977 212.088 185.088 L 212.200 180.200 216.700 180.087 L 221.200 179.974 221.200 175.200 L 221.200 170.426 216.700 170.313 L 212.200 170.200 212.000 165.400 L 211.800 160.600 206.600 160.400 L 201.400 160.200 201.287 155.500 L 201.175 150.800 196.387 150.800 C 193.462 150.800,191.600 150.956,191.600 151.200 M266.000 157.600 L 266.000 163.600 272.000 163.600 L 278.000 163.600 278.000 157.600 L 278.000 151.600 272.000 151.600 L 266.000 151.600 266.000 157.600 M248.900 152.998 C 248.557 153.388,248.400 155.139,248.400 158.583 L 248.400 163.600 253.600 163.600 C 258.070 163.600,258.800 163.511,258.800 162.969 C 258.800 162.505,258.455 162.361,257.500 162.427 C 256.785 162.476,254.715 162.490,252.900 162.458 L 249.600 162.400 249.600 158.000 L 249.600 153.600 254.200 153.600 C 258.022 153.600,258.800 153.499,258.800 153.000 C 258.800 152.145,249.653 152.143,248.900 152.998 M277.004 154.100 C 277.135 154.815,277.189 156.930,277.122 158.800 L 277.000 162.200 272.200 162.200 L 267.400 162.200 267.285 158.027 C 267.131 152.413,266.769 152.800,272.169 152.800 L 276.764 152.800 277.004 154.100 M308.528 157.600 C 308.528 159.030,308.601 159.615,308.689 158.900 C 308.778 158.185,308.778 157.015,308.689 156.300 C 308.601 155.585,308.528 156.170,308.528 157.600 M114.931 157.837 C 114.446 159.098,114.593 163.065,115.149 163.736 C 115.870 164.608,122.000 164.724,122.000 163.866 C 122.000 163.450,121.291 163.373,118.781 163.519 L 115.561 163.705 115.681 160.953 L 115.800 158.200 117.591 158.073 C 120.477 157.867,122.000 158.290,122.000 159.298 C 122.000 159.960,122.109 160.051,122.472 159.688 C 122.834 159.326,122.819 158.983,122.404 158.208 C 121.725 156.939,115.396 156.624,114.931 157.837 M169.548 157.300 C 169.323 157.738,169.430 159.600,169.681 159.600 C 169.857 159.600,170.000 159.060,170.000 158.400 C 170.000 157.408,169.775 156.861,169.548 157.300 M159.067 159.467 C 158.920 159.613,158.800 166.903,158.800 175.667 L 158.800 191.600 163.776 191.600 C 169.585 191.600,169.170 191.248,169.255 196.252 C 169.326 200.490,169.581 201.200,171.025 201.200 C 172.376 201.200,172.609 200.477,171.307 200.327 L 170.200 200.200 170.087 195.512 L 169.975 190.824 164.887 190.712 L 159.800 190.600 159.800 174.900 C 159.800 166.265,159.695 159.200,159.567 159.200 C 159.438 159.200,159.213 159.320,159.067 159.467 M232.439 174.857 C 232.443 183.248,232.298 190.262,232.117 190.443 C 231.935 190.625,229.630 190.824,226.994 190.886 L 222.200 191.000 222.087 195.700 L 221.975 200.400 217.107 200.400 C 213.724 200.400,212.367 200.527,212.658 200.818 C 213.108 201.268,221.698 201.434,222.390 201.006 C 222.631 200.857,222.800 198.872,222.800 196.176 L 222.800 191.600 228.000 191.600 L 233.200 191.600 233.200 175.600 C 233.200 165.653,233.055 159.600,232.816 159.600 C 232.578 159.600,232.435 165.379,232.439 174.857 M180.800 160.800 C 180.800 161.047,182.867 161.200,186.200 161.200 C 189.533 161.200,191.600 161.047,191.600 160.800 C 191.600 160.553,189.533 160.400,186.200 160.400 C 182.867 160.400,180.800 160.553,180.800 160.800 M129.200 161.829 C 129.200 162.202,129.472 162.406,129.867 162.329 C 130.870 162.135,131.008 161.200,130.033 161.200 C 129.542 161.200,129.200 161.458,129.200 161.829 M259.300 168.198 C 258.941 168.607,258.800 170.739,258.800 175.783 L 258.800 182.800 266.367 182.800 L 273.934 182.800 274.168 179.900 C 274.604 174.483,274.235 168.978,273.379 168.122 C 272.596 167.339,259.997 167.407,259.300 168.198 M272.310 168.753 C 272.705 168.789,272.795 170.221,272.710 175.100 L 272.600 181.400 266.400 181.400 L 260.200 181.400 260.090 175.119 L 259.980 168.837 262.690 168.719 C 265.134 168.612,271.020 168.632,272.310 168.753 M129.200 170.153 C 129.200 170.713,129.846 170.800,134.000 170.800 C 136.933 170.800,138.800 170.644,138.800 170.400 C 138.800 170.161,137.230 169.998,134.900 169.995 C 132.755 169.992,130.595 169.881,130.100 169.748 C 129.438 169.571,129.200 169.678,129.200 170.153 M211.000 175.400 L 211.000 179.400 198.000 179.297 C 190.850 179.241,184.055 179.196,182.900 179.197 L 180.800 179.200 180.800 175.467 C 180.800 173.413,180.922 171.611,181.071 171.462 C 181.221 171.313,188.016 171.238,196.171 171.295 L 211.000 171.400 211.000 175.400 M175.900 172.683 C 176.537 174.054,176.550 177.690,175.920 178.320 C 175.272 178.968,174.000 178.930,174.000 178.262 C 174.000 177.966,173.658 177.414,173.239 177.035 C 172.639 176.493,172.490 175.844,172.533 173.973 L 172.587 171.600 173.994 171.603 C 175.128 171.606,175.497 171.814,175.900 172.683 M219.800 175.200 L 219.800 178.800 217.743 178.800 C 215.337 178.800,215.262 178.686,215.429 175.309 C 215.577 172.314,216.087 171.635,218.200 171.615 L 219.800 171.600 219.800 175.200 M243.300 174.598 C 242.571 175.427,242.627 181.484,243.371 182.229 C 243.783 182.640,244.964 182.800,247.600 182.800 C 252.262 182.800,252.400 182.674,252.400 178.400 C 252.400 176.110,252.230 174.973,251.829 174.571 C 251.024 173.767,244.012 173.789,243.300 174.598 M251.000 178.400 L 251.000 181.400 247.600 181.400 L 244.200 181.400 244.079 178.842 C 243.903 175.102,243.856 175.149,247.694 175.284 L 251.000 175.400 251.000 178.400 M181.097 189.028 L 180.911 190.000 185.975 190.000 C 189.161 190.000,191.205 190.165,191.485 190.445 C 191.927 190.887,192.800 190.627,192.800 190.053 C 192.800 189.083,191.667 188.246,191.049 188.760 C 190.619 189.116,189.919 189.200,188.906 189.017 C 188.077 188.868,186.269 188.685,184.886 188.610 C 183.503 188.536,182.127 188.381,181.827 188.266 C 181.483 188.134,181.214 188.414,181.097 189.028 M177.822 200.835 C 177.969 201.074,178.440 201.178,178.868 201.066 C 179.513 200.898,179.563 200.963,179.160 201.448 C 178.792 201.892,178.786 202.146,179.137 202.497 C 179.398 202.758,179.600 204.160,179.600 205.708 L 179.600 208.457 176.100 208.260 C 174.175 208.151,172.060 208.003,171.400 207.931 C 170.393 207.821,170.178 207.954,170.065 208.756 C 169.948 209.584,170.055 209.678,170.865 209.461 C 171.379 209.324,173.735 209.208,176.100 209.205 L 180.400 209.200 180.400 204.800 L 180.400 200.400 178.976 200.400 C 178.053 200.400,177.647 200.553,177.822 200.835 M83.334 210.000 C 83.334 211.650,83.405 212.325,83.491 211.500 C 83.578 210.675,83.578 209.325,83.491 208.500 C 83.405 207.675,83.334 208.350,83.334 210.000 M219.652 207.960 C 219.350 208.151,217.924 208.254,216.482 208.190 C 215.040 208.125,213.397 208.281,212.830 208.536 C 211.961 208.927,212.582 209.031,216.800 209.200 L 221.800 209.400 222.000 214.000 L 222.200 218.600 226.994 218.714 C 229.630 218.776,231.937 218.977,232.121 219.161 C 232.499 219.539,232.507 238.055,232.129 239.040 C 231.947 239.514,232.081 239.641,232.642 239.525 C 233.148 239.421,233.349 239.109,233.245 238.585 C 233.096 237.826,233.163 220.621,233.322 219.000 C 233.396 218.241,233.126 218.194,228.100 218.088 L 222.800 217.977 222.800 213.188 C 222.800 208.715,222.749 208.400,222.024 208.400 C 221.597 208.400,221.136 208.220,221.000 208.000 C 220.699 207.513,220.371 207.504,219.652 207.960 M200.656 210.678 C 200.193 211.140,200.368 219.933,200.846 220.228 C 201.091 220.380,203.437 220.504,206.060 220.504 L 210.828 220.504 210.714 224.352 L 210.600 228.200 198.000 228.283 C 191.070 228.328,182.295 228.491,178.500 228.645 L 171.600 228.925 171.600 234.286 C 171.600 237.758,171.741 239.560,172.000 239.400 C 172.229 239.258,172.400 237.196,172.400 234.576 L 172.400 230.000 176.000 230.000 L 179.600 230.000 179.600 231.176 C 179.600 231.823,179.420 232.464,179.200 232.600 C 178.980 232.736,178.800 233.636,178.800 234.600 C 178.800 235.564,178.980 236.464,179.200 236.600 C 179.420 236.736,179.600 237.467,179.600 238.224 L 179.600 239.600 181.720 239.600 C 182.886 239.600,184.039 239.799,184.283 240.043 C 184.565 240.325,185.431 240.389,186.663 240.218 C 188.806 239.921,188.746 239.921,200.557 240.229 C 206.183 240.376,209.052 240.308,209.337 240.023 C 209.569 239.791,210.354 239.600,211.080 239.600 L 212.400 239.600 212.400 236.088 C 212.400 233.035,212.505 232.501,213.200 232.000 C 213.640 231.683,214.000 231.088,214.000 230.677 C 214.000 230.030,214.278 229.946,216.100 230.041 C 219.750 230.231,221.200 230.053,221.200 229.413 C 221.200 228.939,220.337 228.805,216.700 228.713 L 212.200 228.600 212.087 224.143 C 211.954 218.873,212.381 219.214,205.900 219.205 L 201.600 219.200 201.600 215.024 C 201.600 211.202,201.338 209.996,200.656 210.678 M191.612 212.620 C 191.623 213.654,191.677 213.709,192.054 213.061 C 192.361 212.532,192.358 212.198,192.041 211.881 C 191.720 211.560,191.603 211.759,191.612 212.620 M161.200 217.600 C 160.870 217.813,160.192 217.991,159.694 217.994 L 158.787 218.000 158.894 229.100 C 158.985 238.653,159.084 240.200,159.600 240.200 C 160.000 240.200,160.133 239.933,160.000 239.400 C 159.890 238.960,159.800 234.190,159.800 228.800 L 159.800 219.000 165.119 218.800 C 170.316 218.605,170.424 218.582,169.862 217.815 C 169.433 217.230,169.148 217.138,168.743 217.455 C 168.152 217.917,165.004 217.938,164.549 217.482 C 164.137 217.070,161.898 217.149,161.200 217.600 M186.300 219.511 L 180.800 219.623 180.800 220.588 C 180.800 221.806,181.586 222.340,181.857 221.305 C 182.041 220.600,182.260 220.562,184.294 220.881 C 185.768 221.112,186.670 221.090,186.944 220.816 C 187.173 220.587,188.303 220.400,189.456 220.400 C 190.609 220.400,191.671 220.208,191.816 219.973 C 192.187 219.373,192.368 219.389,186.300 219.511 M211.114 234.105 L 211.227 238.410 196.114 238.305 L 181.000 238.200 180.886 233.895 L 180.773 229.590 195.886 229.695 L 211.000 229.800 211.114 234.105 M308.500 231.357 C 308.500 231.931,308.658 232.400,308.850 232.400 C 309.295 232.400,309.291 231.564,308.844 230.857 C 308.601 230.474,308.500 230.621,308.500 231.357 M308.400 245.367 C 308.400 251.179,308.291 256.219,308.157 256.567 C 307.998 256.982,308.135 257.200,308.557 257.200 C 309.132 257.200,309.200 256.020,309.200 246.000 C 309.200 238.800,309.057 234.800,308.800 234.800 C 308.543 234.800,308.400 238.589,308.400 245.367 M220.491 237.285 C 219.716 238.227,220.518 240.013,221.690 239.954 C 222.331 239.921,222.400 239.854,221.923 239.729 C 221.477 239.611,221.203 239.056,221.123 238.108 C 221.018 236.877,220.926 236.757,220.491 237.285 M83.200 256.361 C 83.200 256.518,83.443 256.979,83.739 257.385 C 84.329 258.192,85.293 257.908,84.955 257.027 C 84.734 256.450,83.200 255.869,83.200 256.361 M298.581 258.162 C 298.605 259.413,299.105 259.913,299.445 259.026 C 299.595 258.637,299.461 258.089,299.136 257.765 C 298.638 257.267,298.565 257.319,298.581 258.162 M195.500 266.700 C 127.766 266.767,93.200 266.936,93.200 267.201 C 93.200 267.465,127.866 267.600,196.000 267.600 C 287.111 267.600,298.800 267.532,298.800 267.000 C 298.800 266.670,298.575 266.445,298.300 266.499 C 298.025 266.554,251.765 266.644,195.500 266.700 M164.938 276.900 C 164.836 277.065,163.428 277.200,161.809 277.200 L 158.866 277.200 158.617 280.100 C 158.266 284.204,158.261 287.437,158.604 290.100 L 158.899 292.400 196.050 292.400 C 231.164 292.400,233.200 292.362,233.200 291.700 C 233.200 291.038,231.231 291.006,196.600 291.106 L 160.000 291.212 160.000 284.849 C 160.000 279.158,160.074 278.457,160.700 278.215 C 161.928 277.741,231.607 278.088,231.905 278.570 C 232.237 279.107,232.248 279.267,232.332 284.500 C 232.372 287.054,232.562 288.800,232.800 288.800 C 233.048 288.800,233.200 286.600,233.200 283.000 L 233.200 277.200 229.300 277.100 C 215.097 276.737,165.135 276.582,164.938 276.900 M130.868 301.604 C 130.959 301.876,152.414 302.007,196.102 302.002 L 261.200 301.995 261.200 310.211 C 261.200 318.738,260.899 319.989,259.100 318.929 C 258.935 318.832,258.800 318.943,258.800 319.176 C 258.800 319.409,259.523 319.600,260.408 319.600 L 262.015 319.600 261.908 310.500 L 261.800 301.400 196.266 301.299 C 152.069 301.231,130.777 301.330,130.868 301.604 M130.800 319.000 C 130.800 319.330,131.059 319.600,131.376 319.600 C 132.223 319.600,132.497 318.923,131.765 318.642 C 130.873 318.300,130.800 318.327,130.800 319.000 M252.600 319.207 C 250.915 319.444,251.152 319.487,254.100 319.477 C 256.025 319.470,257.600 319.315,257.600 319.132 C 257.600 318.758,255.578 318.788,252.600 319.207 " stroke="none" fill="#929698" fill-rule="evenodd"></path><path id="path1" d="M159.783 92.900 C 159.678 93.175,159.638 101.320,159.696 111.000 L 159.800 128.600 160.000 110.500 C 160.110 100.545,160.149 92.400,160.087 92.400 C 160.026 92.400,159.889 92.625,159.783 92.900 M161.505 92.683 C 162.002 92.779,162.722 92.775,163.105 92.675 C 163.487 92.575,163.080 92.496,162.200 92.501 C 161.320 92.505,161.007 92.587,161.505 92.683 M223.712 92.695 C 224.764 92.777,226.384 92.776,227.312 92.692 C 228.240 92.608,227.380 92.541,225.400 92.542 C 223.420 92.543,222.660 92.612,223.712 92.695 M266.800 95.200 C 265.950 95.472,266.056 95.526,267.500 95.560 C 268.435 95.582,269.200 95.420,269.200 95.200 C 269.200 94.739,268.239 94.739,266.800 95.200 M232.177 106.600 C 232.177 112.980,232.232 115.534,232.299 112.276 C 232.367 109.017,232.366 103.797,232.299 100.676 C 232.231 97.554,232.176 100.220,232.177 106.600 M270.100 95.476 C 270.485 95.576,271.115 95.576,271.500 95.476 C 271.885 95.375,271.570 95.293,270.800 95.293 C 270.030 95.293,269.715 95.375,270.100 95.476 M274.900 95.476 C 275.285 95.576,275.915 95.576,276.300 95.476 C 276.685 95.375,276.370 95.293,275.600 95.293 C 274.830 95.293,274.515 95.375,274.900 95.476 M279.300 95.487 C 279.905 95.578,280.895 95.578,281.500 95.487 C 282.105 95.395,281.610 95.320,280.400 95.320 C 279.190 95.320,278.695 95.395,279.300 95.487 M139.700 95.894 C 140.745 95.976,142.455 95.976,143.500 95.894 C 144.545 95.812,143.690 95.744,141.600 95.744 C 139.510 95.744,138.655 95.812,139.700 95.894 M246.179 96.111 C 246.071 96.392,246.032 100.217,246.092 104.611 L 246.202 112.600 246.401 104.100 C 246.596 95.771,246.577 95.074,246.179 96.111 M146.567 104.000 C 146.567 108.290,146.626 110.045,146.698 107.900 C 146.770 105.755,146.770 102.245,146.698 100.100 C 146.626 97.955,146.567 99.710,146.567 104.000 M308.154 113.600 C 308.154 116.350,308.218 117.475,308.296 116.100 C 308.374 114.725,308.374 112.475,308.296 111.100 C 308.218 109.725,308.154 110.850,308.154 113.600 M181.300 109.862 C 180.257 110.288,180.635 117.994,181.700 118.031 C 182.195 118.048,185.570 118.053,189.200 118.042 C 192.830 118.030,199.275 118.016,203.522 118.010 L 211.245 118.000 211.122 113.900 L 211.000 109.800 196.400 109.729 C 188.370 109.690,181.575 109.750,181.300 109.862 M290.000 181.320 L 290.200 249.800 290.301 181.621 C 290.357 144.123,290.267 113.307,290.101 113.141 C 289.936 112.975,289.890 143.656,290.000 181.320 M102.595 181.600 C 102.595 219.110,102.642 234.455,102.700 215.700 C 102.757 196.945,102.757 166.255,102.700 147.500 C 102.642 128.745,102.595 144.090,102.595 181.600 M171.518 122.895 C 171.583 125.373,171.704 127.602,171.786 127.849 C 171.887 128.151,173.351 128.270,176.268 128.212 L 180.600 128.126 180.853 126.963 C 180.992 126.323,181.127 124.424,181.153 122.743 C 181.210 119.070,181.406 119.200,175.801 119.200 C 173.366 119.200,171.612 119.034,171.533 118.795 C 171.460 118.572,171.453 120.417,171.518 122.895 M212.400 123.537 C 212.400 126.425,212.236 128.017,211.900 128.379 C 211.625 128.675,211.601 128.805,211.846 128.669 C 212.091 128.532,214.296 128.398,216.746 128.371 L 221.200 128.322 221.200 124.008 C 221.200 118.972,221.579 119.321,216.054 119.269 L 212.400 119.234 212.400 123.537 M272.400 123.200 C 272.400 123.420,273.075 123.602,273.900 123.605 C 274.725 123.608,275.760 123.673,276.200 123.748 C 276.640 123.823,276.775 123.808,276.500 123.713 C 276.225 123.619,276.000 123.375,276.000 123.171 C 276.000 122.967,275.190 122.800,274.200 122.800 C 273.210 122.800,272.400 122.980,272.400 123.200 M271.731 126.600 C 271.733 128.140,271.805 128.721,271.892 127.891 C 271.979 127.061,271.977 125.801,271.889 125.091 C 271.800 124.381,271.729 125.060,271.731 126.600 M115.600 130.400 C 115.600 133.700,115.735 136.411,115.900 136.426 C 116.065 136.440,117.010 136.525,118.000 136.615 C 118.990 136.706,121.285 136.880,123.100 137.003 L 126.400 137.227 126.400 130.814 L 126.400 124.400 121.000 124.400 L 115.600 124.400 115.600 130.400 M227.400 128.800 L 222.600 129.039 227.276 129.120 C 230.053 129.167,232.053 129.037,232.200 128.800 C 232.336 128.580,232.392 128.436,232.324 128.480 C 232.256 128.525,230.040 128.669,227.400 128.800 M162.700 129.096 C 164.075 129.174,166.325 129.174,167.700 129.096 C 169.075 129.018,167.950 128.954,165.200 128.954 C 162.450 128.954,161.325 129.018,162.700 129.096 M170.053 132.725 C 169.990 134.414,170.051 135.683,170.188 135.545 C 170.613 135.121,170.915 130.118,170.530 129.881 C 170.328 129.756,170.117 131.017,170.053 132.725 M201.354 134.400 C 201.354 137.150,201.418 138.275,201.496 136.900 C 201.574 135.525,201.574 133.275,201.496 131.900 C 201.418 130.525,201.354 131.650,201.354 134.400 M221.751 134.400 C 221.751 136.930,221.816 137.965,221.896 136.700 C 221.975 135.435,221.975 133.365,221.896 132.100 C 221.816 130.835,221.751 131.870,221.751 134.400 M133.206 136.100 C 133.203 136.705,133.380 137.200,133.600 137.200 C 134.106 137.200,134.106 136.383,133.600 135.600 C 133.298 135.132,133.211 135.243,133.206 136.100 M240.632 135.501 C 240.504 135.629,240.400 138.493,240.400 141.867 L 240.400 148.000 246.600 148.000 L 252.800 148.000 252.800 142.014 C 252.800 136.719,252.719 135.986,252.100 135.663 C 251.341 135.267,241.012 135.121,240.632 135.501 M170.000 137.310 C 170.000 138.103,170.169 138.857,170.376 138.985 C 170.601 139.124,170.659 138.609,170.520 137.709 C 170.210 135.700,170.000 135.539,170.000 137.310 M220.500 139.482 C 219.409 139.693,219.298 140.400,220.357 140.400 C 220.774 140.400,221.218 140.130,221.345 139.800 C 221.471 139.470,221.536 139.225,221.487 139.254 C 221.439 139.284,220.995 139.387,220.500 139.482 M191.600 139.981 C 191.600 140.249,193.269 140.400,196.224 140.400 C 198.799 140.400,200.750 140.243,200.629 140.046 C 200.307 139.527,191.600 139.464,191.600 139.981 M263.324 143.800 C 263.326 145.120,263.401 145.612,263.490 144.893 C 263.579 144.174,263.577 143.094,263.486 142.493 C 263.395 141.892,263.322 142.480,263.324 143.800 M129.700 145.098 C 127.665 145.171,125.990 145.358,125.978 145.515 C 125.966 145.672,125.945 148.050,125.931 150.800 L 125.905 155.800 130.499 155.912 L 135.093 156.024 134.983 150.759 C 134.880 145.807,134.576 144.514,133.600 144.889 C 133.490 144.931,131.735 145.025,129.700 145.098 M258.691 146.689 C 259.401 146.777,260.661 146.779,261.491 146.692 C 262.321 146.605,261.740 146.533,260.200 146.531 C 258.660 146.529,257.981 146.600,258.691 146.689 M143.371 147.509 C 143.495 147.899,143.421 148.830,143.206 149.578 C 142.675 151.431,143.126 151.810,145.788 151.745 C 148.613 151.676,148.552 151.755,148.446 148.300 L 148.400 146.800 145.773 146.800 C 143.440 146.800,143.171 146.879,143.371 147.509 M191.468 150.688 C 191.362 150.860,193.502 150.945,196.224 150.877 L 201.173 150.755 201.307 155.178 L 201.441 159.601 201.421 155.101 L 201.400 150.600 196.531 150.488 C 193.853 150.426,191.575 150.516,191.468 150.688 M221.714 154.600 C 221.717 155.700,221.795 156.103,221.887 155.495 C 221.979 154.886,221.977 153.986,221.882 153.495 C 221.787 153.003,221.711 153.500,221.714 154.600 M267.553 156.900 C 267.478 162.761,267.176 162.439,272.600 162.301 L 276.600 162.200 276.713 157.700 L 276.826 153.200 272.213 153.200 L 267.600 153.200 267.553 156.900 M249.772 154.130 C 249.660 154.422,249.620 156.357,249.684 158.430 L 249.800 162.200 254.067 162.200 C 258.172 162.200,259.539 161.904,258.475 161.246 C 258.199 161.076,258.057 160.680,258.159 160.368 C 258.588 159.056,258.828 153.936,258.449 154.170 C 258.232 154.304,257.942 154.230,257.804 154.007 C 257.409 153.367,250.021 153.480,249.772 154.130 M183.900 160.296 C 185.275 160.374,187.525 160.374,188.900 160.296 C 190.275 160.218,189.150 160.154,186.400 160.154 C 183.650 160.154,182.525 160.218,183.900 160.296 M204.300 160.296 C 205.675 160.374,207.925 160.374,209.300 160.296 C 210.675 160.218,209.550 160.154,206.800 160.154 C 204.050 160.154,202.925 160.218,204.300 160.296 M159.781 175.400 C 159.781 183.540,159.834 186.813,159.900 182.674 C 159.965 178.534,159.965 171.874,159.899 167.874 C 159.834 163.873,159.781 167.260,159.781 175.400 M171.773 161.327 C 171.661 161.617,171.622 163.732,171.685 166.027 L 171.800 170.200 175.800 170.070 C 178.000 169.999,180.115 169.852,180.500 169.744 C 181.235 169.536,181.489 168.400,180.800 168.400 C 180.572 168.400,180.400 167.208,180.400 165.624 C 180.400 164.097,180.580 162.736,180.800 162.600 C 181.020 162.464,181.197 162.138,181.194 161.876 C 181.190 161.558,181.074 161.580,180.844 161.943 C 180.579 162.360,180.430 162.373,180.199 161.998 C 180.031 161.726,180.141 161.356,180.449 161.161 C 180.782 160.950,179.214 160.810,176.487 160.806 C 173.118 160.802,171.924 160.934,171.773 161.327 M212.212 165.100 C 212.226 170.545,211.965 170.259,216.878 170.227 L 221.000 170.200 221.113 165.750 C 221.245 160.516,221.566 160.814,215.800 160.806 L 212.200 160.801 212.212 165.100 M232.124 163.000 C 232.126 164.320,232.201 164.812,232.290 164.093 C 232.379 163.374,232.377 162.294,232.286 161.693 C 232.195 161.092,232.122 161.680,232.124 163.000 M129.200 166.000 C 129.200 167.867,129.367 169.200,129.600 169.200 C 129.833 169.200,130.000 167.867,130.000 166.000 C 130.000 164.133,129.833 162.800,129.600 162.800 C 129.367 162.800,129.200 164.133,129.200 166.000 M117.100 163.489 C 117.815 163.578,118.985 163.578,119.700 163.489 C 120.415 163.401,119.830 163.328,118.400 163.328 C 116.970 163.328,116.385 163.401,117.100 163.489 M232.176 176.800 C 232.176 183.070,232.232 185.635,232.299 182.500 C 232.367 179.365,232.367 174.235,232.299 171.100 C 232.232 167.965,232.176 170.530,232.176 176.800 M260.468 169.500 C 260.269 169.885,260.173 172.460,260.254 175.223 C 260.334 177.985,260.400 180.460,260.400 180.723 C 260.400 181.071,262.020 181.200,266.400 181.200 L 272.400 181.200 272.400 175.000 L 272.400 168.800 266.614 168.800 C 261.508 168.800,260.786 168.882,260.468 169.500 M132.100 169.894 C 133.145 169.976,134.855 169.976,135.900 169.894 C 136.945 169.812,136.090 169.744,134.000 169.744 C 131.910 169.744,131.055 169.812,132.100 169.894 M181.051 175.072 C 180.904 176.982,180.923 178.674,181.092 178.832 C 181.490 179.203,210.065 179.488,210.619 179.126 C 210.946 178.913,211.087 174.168,210.834 171.900 C 210.815 171.735,204.167 171.600,196.059 171.600 L 181.318 171.600 181.051 175.072 M247.503 175.428 C 247.446 175.483,246.693 175.597,245.829 175.681 L 244.259 175.833 244.259 178.406 L 244.259 180.979 245.593 181.252 C 249.538 182.059,252.925 179.875,250.900 177.831 C 250.735 177.664,250.600 177.143,250.600 176.673 C 250.600 175.936,248.037 174.905,247.503 175.428 M172.500 180.278 C 171.592 180.457,171.527 180.625,171.527 182.800 C 171.527 183.460,171.544 185.266,171.564 186.813 L 171.600 189.625 176.300 189.513 C 180.842 189.404,181.002 189.370,181.045 188.510 C 181.070 188.021,180.935 187.717,180.745 187.834 C 180.555 187.951,180.400 187.677,180.400 187.224 C 180.400 186.771,180.580 186.400,180.800 186.400 C 181.022 186.400,181.200 185.333,181.200 184.000 C 181.200 182.680,181.041 181.600,180.847 181.600 C 180.652 181.600,180.405 181.262,180.297 180.848 C 180.101 180.099,175.215 179.741,172.500 180.278 M215.500 180.317 L 212.400 180.434 212.400 182.758 C 212.400 184.037,212.289 186.144,212.153 187.441 L 211.905 189.800 216.554 189.676 C 221.012 189.557,221.185 189.520,220.787 188.776 C 220.501 188.242,220.501 188.000,220.786 188.000 C 221.014 188.000,221.200 187.280,221.200 186.400 C 221.200 185.520,221.020 184.800,220.800 184.800 C 220.580 184.800,220.400 184.530,220.400 184.200 C 220.400 183.870,220.555 183.600,220.745 183.600 C 220.935 183.600,221.091 182.897,221.091 182.037 C 221.091 180.212,220.785 180.118,215.500 180.317 M232.000 189.721 C 232.000 190.282,231.332 190.393,227.300 190.501 L 222.600 190.628 227.313 190.714 C 231.903 190.798,233.328 190.394,232.249 189.316 C 232.112 189.179,232.000 189.361,232.000 189.721 M183.516 190.297 C 184.899 190.375,187.059 190.374,188.316 190.295 C 189.572 190.216,188.440 190.152,185.800 190.153 C 183.160 190.153,182.132 190.218,183.516 190.297 M201.372 190.528 C 201.261 190.819,201.223 192.844,201.288 195.028 L 201.406 199.000 201.603 194.499 C 201.798 190.045,201.766 189.501,201.372 190.528 M205.511 190.293 C 206.451 190.378,207.891 190.377,208.711 190.291 C 209.530 190.205,208.760 190.136,207.000 190.137 C 205.240 190.139,204.570 190.209,205.511 190.293 M162.700 190.696 C 164.075 190.774,166.325 190.774,167.700 190.696 C 169.075 190.618,167.950 190.554,165.200 190.554 C 162.450 190.554,161.325 190.618,162.700 190.696 M221.748 195.600 C 221.748 197.910,221.814 198.855,221.895 197.700 C 221.976 196.545,221.976 194.655,221.895 193.500 C 221.814 192.345,221.748 193.290,221.748 195.600 M170.000 198.884 C 170.000 199.224,170.299 199.749,170.665 200.051 C 171.274 200.553,171.287 200.515,170.811 199.600 C 170.114 198.259,170.000 198.158,170.000 198.884 M191.776 199.239 C 191.647 199.447,193.559 199.580,196.276 199.554 C 199.778 199.520,200.586 199.426,199.400 199.191 C 197.227 198.761,192.051 198.793,191.776 199.239 M211.600 200.976 C 211.600 201.293,211.780 201.664,212.000 201.800 C 212.220 201.936,212.400 201.677,212.400 201.224 C 212.400 200.771,212.220 200.400,212.000 200.400 C 211.780 200.400,211.600 200.659,211.600 200.976 M211.600 203.600 C 211.600 204.260,211.753 204.800,211.939 204.800 C 212.126 204.800,212.294 204.260,212.312 203.600 C 212.331 202.940,212.179 202.400,211.973 202.400 C 211.768 202.400,211.600 202.940,211.600 203.600 M180.528 205.600 C 180.528 207.030,180.601 207.615,180.689 206.900 C 180.778 206.185,180.778 205.015,180.689 204.300 C 180.601 203.585,180.528 204.170,180.528 205.600 M211.673 208.300 L 211.800 209.400 216.400 209.419 L 221.000 209.438 216.496 209.306 L 211.991 209.175 212.239 208.187 C 212.397 207.557,212.317 207.200,212.017 207.200 C 211.740 207.200,211.599 207.652,211.673 208.300 M173.715 209.496 C 174.988 209.576,176.968 209.575,178.115 209.494 C 179.262 209.414,178.220 209.349,175.800 209.350 C 173.380 209.351,172.442 209.416,173.715 209.496 M221.750 213.800 C 221.751 216.220,221.816 217.158,221.896 215.885 C 221.976 214.612,221.975 212.632,221.894 211.485 C 221.814 210.338,221.749 211.380,221.750 213.800 M201.628 214.900 L 201.562 219.200 206.181 219.200 L 210.800 219.200 210.800 214.790 L 210.800 210.380 206.246 210.490 L 201.693 210.600 201.628 214.900 M162.517 219.097 C 164.011 219.174,166.351 219.174,167.717 219.096 C 169.082 219.018,167.860 218.955,165.000 218.955 C 162.140 218.956,161.022 219.020,162.517 219.097 M224.716 219.097 C 226.099 219.175,228.259 219.174,229.516 219.095 C 230.772 219.016,229.640 218.952,227.000 218.953 C 224.360 218.953,223.332 219.018,224.716 219.097 M184.915 219.496 C 186.188 219.576,188.168 219.575,189.315 219.494 C 190.462 219.414,189.420 219.349,187.000 219.350 C 184.580 219.351,183.642 219.416,184.915 219.496 M211.940 219.724 C 212.335 220.203,212.442 221.425,212.340 224.289 L 212.200 228.200 214.400 228.498 C 215.610 228.662,217.635 228.689,218.900 228.559 L 221.200 228.321 221.200 224.204 C 221.200 219.421,221.511 219.717,216.600 219.828 C 214.620 219.873,212.640 219.721,212.200 219.490 C 211.489 219.116,211.460 219.142,211.940 219.724 M159.767 227.000 C 159.767 231.180,159.826 232.836,159.898 230.679 C 159.971 228.523,159.970 225.103,159.898 223.079 C 159.825 221.056,159.766 222.820,159.767 227.000 M175.900 219.898 L 171.600 220.027 171.600 224.167 C 171.600 229.050,171.278 228.810,177.384 228.491 C 181.061 228.298,181.154 228.270,180.615 227.500 C 180.041 226.681,180.210 225.435,180.842 225.826 C 181.039 225.948,181.200 225.867,181.200 225.647 C 181.200 225.427,180.999 225.123,180.754 224.972 C 180.488 224.807,180.392 224.073,180.516 223.148 C 180.630 222.297,180.545 221.490,180.327 221.355 C 180.109 221.220,180.019 220.770,180.128 220.355 C 180.236 219.940,180.297 219.638,180.263 219.685 C 180.228 219.732,178.265 219.828,175.900 219.898 M232.093 222.000 C 232.093 222.770,232.175 223.085,232.276 222.700 C 232.376 222.315,232.376 221.685,232.276 221.300 C 232.175 220.915,232.093 221.230,232.093 222.000 M181.018 229.999 C 180.959 230.109,180.937 231.910,180.969 234.000 L 181.028 237.800 196.114 237.905 L 211.200 238.010 211.200 234.005 L 211.200 230.000 198.500 229.968 C 191.515 229.950,184.748 229.905,183.463 229.867 C 182.177 229.829,181.077 229.888,181.018 229.999 M232.150 234.200 C 232.151 236.620,232.216 237.558,232.296 236.285 C 232.376 235.012,232.375 233.032,232.294 231.885 C 232.214 230.738,232.149 231.780,232.150 234.200 M159.709 236.400 C 159.709 237.390,159.787 237.795,159.882 237.300 C 159.978 236.805,159.978 235.995,159.882 235.500 C 159.787 235.005,159.709 235.410,159.709 236.400 M308.173 246.600 C 308.173 251.880,308.230 253.985,308.299 251.277 C 308.368 248.569,308.368 244.249,308.299 241.677 C 308.229 239.105,308.172 241.320,308.173 246.600 M149.468 250.300 C 175.025 250.357,216.965 250.357,242.668 250.300 C 268.371 250.243,247.460 250.197,196.200 250.197 C 144.940 250.197,123.911 250.243,149.468 250.300 M84.693 256.700 C 84.925 257.302,93.200 257.423,93.200 256.825 C 93.200 256.619,91.242 256.394,88.850 256.325 C 85.494 256.229,84.544 256.314,84.693 256.700 M295.600 266.400 L 293.400 266.670 295.476 266.735 C 296.618 266.771,297.664 266.620,297.800 266.400 C 297.936 266.180,297.992 266.029,297.924 266.065 C 297.856 266.101,296.810 266.252,295.600 266.400 M152.100 266.700 C 177.785 266.757,219.815 266.757,245.500 266.700 C 271.185 266.643,250.170 266.597,198.800 266.597 C 147.430 266.597,126.415 266.643,152.100 266.700 M163.700 278.696 L 160.400 278.832 160.400 285.016 L 160.400 291.200 196.220 291.200 L 232.039 291.200 231.920 284.900 L 231.800 278.600 199.400 278.580 C 181.580 278.569,165.515 278.622,163.700 278.696 M142.291 302.289 C 143.001 302.377,144.261 302.379,145.091 302.292 C 145.921 302.205,145.340 302.133,143.800 302.131 C 142.260 302.129,141.581 302.200,142.291 302.289 M260.968 310.200 C 260.968 314.600,261.026 316.455,261.098 314.321 C 261.170 312.188,261.170 308.588,261.099 306.321 C 261.027 304.055,260.968 305.800,260.968 310.200 M205.900 319.089 C 206.615 319.178,207.785 319.178,208.500 319.089 C 209.215 319.001,208.630 318.928,207.200 318.928 C 205.770 318.928,205.185 319.001,205.900 319.089 M210.000 319.249 C 210.000 319.442,210.930 319.600,212.067 319.600 C 213.203 319.600,214.058 319.534,213.967 319.453 C 213.580 319.113,210.000 318.929,210.000 319.249 " stroke="none" fill="#a7b2bb" fill-rule="evenodd"></path><path id="path2" d="M160.096 110.700 L 160.200 128.600 165.600 128.800 L 171.000 129.000 171.200 134.000 L 171.400 139.000 176.100 139.113 L 180.800 139.225 180.800 144.813 L 180.800 150.400 176.000 150.400 L 171.200 150.400 171.200 155.029 C 171.200 161.020,171.435 160.800,165.029 160.800 L 160.000 160.800 160.000 175.589 L 160.000 190.377 165.500 190.489 L 171.000 190.600 171.113 195.093 C 171.260 200.948,171.007 200.805,179.600 199.905 L 180.600 199.800 180.712 204.687 L 180.824 209.574 176.112 209.687 L 171.400 209.800 171.287 214.500 L 171.175 219.200 165.587 219.200 L 160.000 219.200 160.000 228.800 L 160.000 238.400 165.592 238.400 L 171.184 238.400 171.184 228.941 C 171.184 223.739,171.242 219.425,171.313 219.353 C 171.384 219.282,175.991 219.207,181.551 219.186 L 191.659 219.149 191.559 214.474 L 191.460 209.800 198.030 209.731 C 201.643 209.694,206.085 209.649,207.900 209.631 L 211.200 209.600 211.200 204.896 L 211.200 200.193 216.052 200.135 C 221.869 200.066,221.586 200.344,221.594 194.712 L 221.600 190.424 226.700 190.312 L 231.800 190.200 231.905 175.500 L 232.010 160.800 228.305 160.746 C 226.267 160.716,223.970 160.636,223.200 160.568 L 221.800 160.445 221.846 165.922 C 221.871 168.935,221.813 171.540,221.716 171.710 C 221.550 172.004,221.457 178.376,221.613 178.800 C 221.800 179.307,221.892 188.700,221.719 189.481 C 221.523 190.359,221.488 190.363,211.886 190.377 C 206.586 190.385,202.110 190.530,201.939 190.701 C 201.769 190.871,201.577 192.989,201.514 195.406 L 201.400 199.800 196.397 199.911 L 191.394 200.022 191.538 195.469 C 191.715 189.909,192.792 190.413,180.714 190.405 C 172.472 190.401,171.594 190.335,171.258 189.700 C 170.929 189.077,170.974 160.893,171.305 160.562 C 171.375 160.492,175.988 160.308,181.556 160.154 L 191.681 159.873 191.540 155.136 L 191.400 150.400 196.500 150.400 L 201.600 150.400 201.600 155.013 C 201.600 158.344,201.739 159.673,202.100 159.797 C 202.843 160.054,220.469 160.348,221.077 160.115 C 221.670 159.888,221.836 151.790,221.266 150.894 C 221.041 150.539,219.479 150.359,216.063 150.294 L 211.182 150.200 211.291 144.800 L 211.400 139.400 216.400 139.200 L 221.400 139.000 221.512 133.912 L 221.624 128.824 226.712 128.712 L 231.800 128.600 231.800 110.800 L 231.800 93.000 227.000 93.000 L 222.200 93.000 222.116 109.600 C 222.070 118.730,221.932 126.758,221.809 127.441 L 221.586 128.682 213.293 129.012 C 205.692 129.315,203.465 129.422,202.111 129.553 C 201.758 129.587,201.592 131.127,201.511 135.100 L 201.400 140.600 196.400 140.711 L 191.400 140.823 191.538 135.211 L 191.677 129.600 187.138 129.556 C 184.642 129.531,182.212 129.542,181.738 129.579 C 181.264 129.617,180.759 129.457,180.615 129.224 C 180.455 128.966,178.578 128.800,175.816 128.800 L 171.278 128.800 171.131 123.300 C 171.050 120.275,171.121 117.700,171.288 117.579 C 171.932 117.111,171.588 93.281,170.934 93.030 C 170.604 92.904,168.007 92.800,165.163 92.800 L 159.992 92.800 160.096 110.700 M94.400 100.717 C 94.400 106.595,94.582 106.400,89.120 106.400 L 84.800 106.400 84.796 121.700 C 84.794 130.115,84.680 140.600,84.542 145.000 C 84.405 149.400,84.429 176.175,84.595 204.500 L 84.898 256.000 89.262 256.000 C 94.373 256.000,93.950 255.510,94.093 261.600 L 94.200 266.200 195.800 266.200 L 297.400 266.200 297.513 261.415 C 297.649 255.684,297.296 256.014,303.300 256.006 L 308.000 256.000 308.000 181.633 C 308.000 140.731,307.908 107.026,307.797 106.733 C 307.641 106.325,306.616 106.229,303.418 106.325 C 297.519 106.502,297.650 106.623,297.513 100.893 L 297.400 96.200 272.000 96.200 L 246.600 96.200 246.482 103.400 C 246.418 107.360,246.472 111.191,246.603 111.913 L 246.841 113.226 268.621 113.113 L 290.400 113.000 290.400 181.700 L 290.400 250.400 196.400 250.400 L 102.400 250.400 102.400 181.627 C 102.400 104.909,102.146 111.715,104.973 112.790 C 105.659 113.050,113.413 113.200,126.234 113.200 L 146.416 113.200 146.308 104.700 L 146.200 96.200 120.300 96.097 L 94.400 95.994 94.400 100.717 M272.285 124.248 C 272.128 124.405,272.000 125.583,272.000 126.867 L 272.000 129.200 273.975 129.200 L 275.951 129.200 276.214 127.447 C 276.643 124.585,276.442 124.216,274.382 124.082 C 273.385 124.016,272.442 124.091,272.285 124.248 M134.400 131.426 C 134.400 137.365,134.290 137.244,139.622 137.171 L 144.000 137.112 144.000 132.156 L 144.000 127.200 139.200 127.200 L 134.400 127.200 134.400 131.426 M257.697 142.063 C 255.525 144.235,257.623 146.639,261.418 146.329 L 263.000 146.200 263.000 144.000 L 263.000 141.800 260.597 141.683 C 259.072 141.609,258.012 141.748,257.697 142.063 M116.170 158.933 C 116.049 159.250,116.006 160.294,116.075 161.254 L 116.200 163.000 118.400 163.000 L 120.600 163.000 120.600 160.800 L 120.600 158.600 118.496 158.479 C 116.950 158.390,116.332 158.511,116.170 158.933 M130.667 162.667 C 130.520 162.813,130.400 164.433,130.400 166.267 L 130.400 169.600 133.900 169.587 C 138.492 169.571,138.765 169.352,138.753 165.709 C 138.745 163.143,138.663 162.857,137.872 162.645 C 136.669 162.322,130.994 162.339,130.667 162.667 M211.687 214.288 L 211.800 219.000 216.700 219.112 C 219.395 219.174,221.626 219.354,221.657 219.512 C 221.929 220.884,221.849 230.000,221.565 230.000 C 221.364 230.000,221.200 231.440,221.200 233.200 C 221.200 235.289,221.355 236.400,221.647 236.400 C 221.892 236.400,222.002 236.748,221.891 237.174 C 221.606 238.264,222.223 238.400,227.440 238.400 L 232.014 238.400 231.907 228.900 L 231.800 219.400 226.713 219.288 L 221.625 219.176 221.513 214.488 L 221.400 209.800 216.487 209.688 L 211.574 209.575 211.687 214.288 M132.092 310.300 L 132.200 318.200 196.400 318.200 L 260.600 318.200 260.714 311.200 C 260.777 307.350,260.728 303.795,260.606 303.300 L 260.385 302.400 196.184 302.400 L 131.983 302.400 132.092 310.300 " stroke="none" fill="#fbfbf2" fill-rule="evenodd"></path><path id="path3" d="M94.400 95.100 C 94.400 95.265,95.030 95.400,95.800 95.400 C 96.570 95.400,97.200 95.265,97.200 95.100 C 97.200 94.935,96.570 94.800,95.800 94.800 C 95.030 94.800,94.400 94.935,94.400 95.100 M98.211 95.182 C 98.033 95.470,103.309 95.600,115.176 95.600 C 125.138 95.600,132.400 95.448,132.400 95.239 C 132.400 94.709,98.538 94.653,98.211 95.182 M133.600 95.213 C 132.954 95.429,133.380 95.466,134.800 95.319 C 136.010 95.194,137.075 95.026,137.167 94.946 C 137.487 94.665,134.591 94.883,133.600 95.213 M247.000 95.200 C 246.700 95.685,265.285 95.685,266.800 95.200 C 267.362 95.020,263.297 94.862,257.524 94.840 C 251.060 94.815,247.155 94.948,247.000 95.200 M269.200 95.100 C 269.200 95.265,271.000 95.400,273.200 95.400 C 275.400 95.400,277.200 95.265,277.200 95.100 C 277.200 94.935,275.400 94.800,273.200 94.800 C 271.000 94.800,269.200 94.935,269.200 95.100 M278.001 95.130 C 278.001 95.278,281.961 95.466,286.801 95.547 C 293.079 95.652,295.600 95.567,295.600 95.250 C 295.600 94.936,293.007 94.813,286.800 94.832 C 281.960 94.847,278.000 94.981,278.001 95.130 M296.000 95.200 C 296.000 95.420,296.349 95.600,296.776 95.600 C 297.905 95.600,297.960 95.828,298.027 100.735 C 298.061 103.191,298.249 105.200,298.444 105.200 C 299.257 105.200,298.852 96.452,298.000 95.600 C 297.156 94.756,296.000 94.525,296.000 95.200 M186.482 118.296 C 187.958 118.373,190.478 118.373,192.082 118.297 C 193.687 118.221,192.480 118.158,189.400 118.158 C 186.320 118.157,185.007 118.219,186.482 118.296 M199.521 118.299 C 201.788 118.370,205.388 118.370,207.521 118.298 C 209.655 118.226,207.800 118.168,203.400 118.168 C 199.000 118.168,197.255 118.227,199.521 118.299 M212.151 123.600 C 212.151 126.130,212.216 127.165,212.296 125.900 C 212.375 124.635,212.375 122.565,212.296 121.300 C 212.216 120.035,212.151 121.070,212.151 123.600 M232.570 123.401 C 232.553 124.171,232.688 124.800,232.870 124.800 C 233.051 124.800,233.200 124.170,233.200 123.400 C 233.200 121.573,232.609 121.574,232.570 123.401 M115.467 124.267 C 115.133 124.600,115.112 135.705,115.443 136.567 C 115.628 137.050,116.267 137.199,118.143 137.194 C 119.920 137.189,120.434 137.077,120.000 136.786 C 119.670 136.566,118.770 136.406,118.000 136.431 C 117.230 136.457,116.375 136.460,116.100 136.439 C 115.724 136.410,115.600 134.913,115.600 130.400 L 115.600 124.400 121.000 124.400 L 126.400 124.400 126.432 130.900 C 126.449 134.475,126.566 137.130,126.692 136.800 C 126.817 136.470,127.118 136.070,127.360 135.912 C 127.675 135.706,127.658 135.395,127.300 134.818 C 126.702 133.853,126.636 131.348,127.200 131.000 C 127.420 130.864,127.600 130.483,127.600 130.153 C 127.600 129.823,127.465 129.635,127.300 129.736 C 127.135 129.837,126.948 129.023,126.885 127.927 C 126.810 126.627,126.915 126.024,127.185 126.191 C 127.846 126.599,127.666 125.686,126.911 124.805 C 126.216 123.993,116.211 123.522,115.467 124.267 M232.400 126.733 C 232.400 127.650,232.566 128.400,232.770 128.400 C 233.127 128.400,232.965 125.632,232.586 125.253 C 232.484 125.150,232.400 125.817,232.400 126.733 M308.400 136.800 C 308.400 140.000,308.554 142.000,308.800 142.000 C 309.046 142.000,309.200 140.000,309.200 136.800 C 309.200 133.600,309.046 131.600,308.800 131.600 C 308.554 131.600,308.400 133.600,308.400 136.800 M240.176 135.718 C 240.067 136.002,240.028 138.927,240.090 142.218 L 240.203 148.200 240.402 141.699 C 240.597 135.309,240.573 134.684,240.176 135.718 M171.740 140.100 C 171.485 140.509,179.269 140.471,179.916 140.060 C 180.201 139.880,178.526 139.748,176.180 139.766 C 173.841 139.785,171.844 139.935,171.740 140.100 M211.829 139.953 C 211.709 140.148,213.408 140.335,215.605 140.369 C 218.145 140.409,219.600 140.281,219.600 140.016 C 219.600 139.502,212.145 139.442,211.829 139.953 M180.520 142.400 C 180.520 143.610,180.595 144.105,180.687 143.500 C 180.778 142.895,180.778 141.905,180.687 141.300 C 180.595 140.695,180.520 141.190,180.520 142.400 M211.600 145.333 C 211.600 147.975,211.763 150.000,211.976 150.000 C 212.396 150.000,212.291 141.358,211.865 140.932 C 211.719 140.786,211.600 142.767,211.600 145.333 M125.867 145.067 C 125.720 145.213,125.603 145.528,125.606 145.767 C 125.610 146.036,125.728 146.017,125.919 145.717 C 126.110 145.416,127.582 145.183,129.813 145.099 L 133.400 144.965 129.767 144.882 C 127.768 144.837,126.013 144.920,125.867 145.067 M134.272 145.076 C 134.532 145.261,134.822 146.220,134.915 147.207 L 135.086 149.000 135.043 147.031 C 135.013 145.646,134.822 145.015,134.400 144.901 C 133.985 144.789,133.946 144.843,134.272 145.076 M142.171 146.931 C 141.626 148.350,142.187 151.790,142.987 151.942 C 143.633 152.065,143.689 151.989,143.295 151.515 C 142.952 151.101,142.927 150.553,143.206 149.578 C 143.421 148.830,143.495 147.899,143.371 147.509 C 143.171 146.880,143.439 146.800,145.749 146.800 L 148.352 146.800 148.518 148.203 L 148.684 149.607 148.642 148.103 L 148.600 146.600 145.494 146.483 C 143.108 146.393,142.338 146.497,142.171 146.931 M125.742 150.200 C 125.741 152.180,125.808 153.040,125.892 152.112 C 125.976 151.184,125.977 149.564,125.895 148.512 C 125.812 147.460,125.743 148.220,125.742 150.200 M241.284 148.561 C 241.568 148.869,241.860 148.959,241.933 148.761 C 242.007 148.562,243.952 148.400,246.257 148.400 C 248.562 148.400,250.364 148.535,250.262 148.700 C 250.160 148.865,250.508 149.026,251.036 149.058 C 251.563 149.089,251.905 148.970,251.795 148.792 C 251.685 148.614,251.821 148.377,252.098 148.266 C 252.374 148.154,249.938 148.049,246.684 148.032 C 241.631 148.005,240.844 148.082,241.284 148.561 M308.501 150.200 C 308.505 151.080,308.587 151.393,308.683 150.895 C 308.779 150.398,308.775 149.678,308.675 149.295 C 308.575 148.913,308.496 149.320,308.501 150.200 M148.432 150.667 C 148.414 151.143,148.175 151.624,147.900 151.735 C 147.508 151.893,147.511 151.944,147.913 151.968 C 148.520 152.006,148.961 151.040,148.669 150.313 C 148.556 150.031,148.449 150.190,148.432 150.667 M134.893 153.600 C 134.893 154.370,134.975 154.685,135.076 154.300 C 135.176 153.915,135.176 153.285,135.076 152.900 C 134.975 152.515,134.893 152.830,134.893 153.600 M308.437 192.031 C 308.395 219.154,308.505 231.582,308.787 231.408 C 309.298 231.092,309.350 152.400,308.839 152.400 C 308.651 152.400,308.470 170.234,308.437 192.031 M267.370 153.333 C 267.258 153.627,267.227 155.382,267.301 157.233 L 267.437 160.600 267.519 156.913 L 267.600 153.225 272.300 153.099 L 277.000 152.972 272.287 152.886 C 268.667 152.820,267.527 152.924,267.370 153.333 M276.798 158.082 C 276.689 160.437,276.742 162.221,276.915 162.046 C 277.089 161.872,277.178 159.945,277.113 157.765 L 276.995 153.800 276.798 158.082 M131.105 156.283 C 131.602 156.379,132.322 156.375,132.705 156.275 C 133.087 156.175,132.680 156.096,131.800 156.101 C 130.920 156.105,130.607 156.187,131.105 156.283 M258.372 158.800 C 258.151 161.005,258.207 161.526,258.622 161.111 C 258.745 160.989,258.788 159.924,258.719 158.744 L 258.594 156.600 258.372 158.800 M130.800 161.600 C 130.800 161.839,132.341 162.000,134.624 162.000 C 137.071 162.000,138.358 161.856,138.200 161.600 C 138.064 161.380,136.343 161.200,134.376 161.200 C 132.259 161.200,130.800 161.363,130.800 161.600 M180.000 161.533 C 180.000 161.717,180.118 161.984,180.262 162.128 C 180.406 162.272,180.484 163.742,180.436 165.395 C 180.387 167.048,180.502 168.400,180.690 168.400 C 180.878 168.400,181.025 166.780,181.016 164.800 C 181.004 162.195,180.862 161.200,180.500 161.200 C 180.225 161.200,180.000 161.350,180.000 161.533 M212.093 166.400 C 212.093 167.170,212.175 167.485,212.276 167.100 C 212.376 166.715,212.376 166.085,212.276 165.700 C 212.175 165.315,212.093 165.630,212.093 166.400 M272.488 174.900 L 272.400 181.200 266.433 181.200 C 262.757 181.200,260.389 181.043,260.263 180.790 C 260.151 180.565,260.106 180.610,260.163 180.890 C 260.315 181.646,272.332 181.841,272.620 181.093 C 272.731 180.802,272.767 177.873,272.700 174.582 L 272.577 168.600 272.488 174.900 M177.400 170.000 L 174.200 170.253 177.276 170.327 C 178.980 170.367,180.463 170.222,180.600 170.000 C 180.736 169.780,180.792 169.633,180.724 169.673 C 180.656 169.714,179.160 169.861,177.400 170.000 M180.965 171.746 C 180.848 172.052,180.820 173.179,180.904 174.251 L 181.056 176.200 181.128 173.900 L 181.200 171.600 195.967 171.600 C 205.652 171.600,210.803 171.741,210.937 172.010 C 211.049 172.236,211.094 172.191,211.037 171.910 C 210.877 171.121,181.267 170.960,180.965 171.746 M260.144 176.400 C 260.144 178.490,260.212 179.345,260.294 178.300 C 260.376 177.255,260.376 175.545,260.294 174.500 C 260.212 173.455,260.144 174.310,260.144 176.400 M244.233 175.546 C 244.031 175.873,247.209 175.692,247.567 175.356 C 247.658 175.270,246.994 175.200,246.090 175.200 C 245.187 175.200,244.351 175.356,244.233 175.546 M249.200 175.538 C 250.287 175.741,250.600 175.993,250.600 176.664 C 250.600 177.139,250.750 177.679,250.933 177.863 C 251.116 178.048,251.206 177.569,251.133 176.799 C 251.006 175.468,250.922 175.397,249.400 175.338 L 247.800 175.275 249.200 175.538 M244.109 178.400 C 244.109 179.390,244.187 179.795,244.282 179.300 C 244.378 178.805,244.378 177.995,244.282 177.500 C 244.187 177.005,244.109 177.410,244.109 178.400 M200.900 179.491 C 201.725 179.578,203.075 179.578,203.900 179.491 C 204.725 179.405,204.050 179.334,202.400 179.334 C 200.750 179.334,200.075 179.405,200.900 179.491 M180.278 180.777 C 180.396 181.230,180.666 181.600,180.876 181.600 C 181.407 181.600,181.107 180.302,180.531 180.110 C 180.233 180.011,180.141 180.254,180.278 180.777 M212.169 180.537 C 212.055 180.833,212.025 182.408,212.102 184.037 L 212.241 187.000 212.321 183.717 L 212.400 180.434 215.500 180.297 L 218.600 180.161 215.487 180.080 C 213.192 180.021,212.321 180.141,212.169 180.537 M219.300 180.276 C 219.685 180.376,220.315 180.376,220.700 180.276 C 221.085 180.175,220.770 180.093,220.000 180.093 C 219.230 180.093,218.915 180.175,219.300 180.276 M244.341 181.301 C 244.543 181.503,245.133 181.601,245.654 181.519 C 246.455 181.393,246.398 181.337,245.287 181.152 C 244.493 181.021,244.119 181.079,244.341 181.301 M220.400 184.200 C 220.400 184.530,220.580 184.800,220.800 184.800 C 221.020 184.800,221.200 184.530,221.200 184.200 C 221.200 183.870,221.020 183.600,220.800 183.600 C 220.580 183.600,220.400 183.870,220.400 184.200 M180.400 187.176 C 180.400 188.330,181.017 188.499,181.111 187.371 C 181.155 186.837,181.013 186.400,180.796 186.400 C 180.578 186.400,180.400 186.749,180.400 187.176 M198.900 199.076 C 199.285 199.176,199.915 199.176,200.300 199.076 C 200.685 198.975,200.370 198.893,199.600 198.893 C 198.830 198.893,198.515 198.975,198.900 199.076 M180.210 220.127 C 180.031 220.538,180.072 221.032,180.304 221.264 C 180.529 221.489,180.623 222.354,180.511 223.185 C 180.391 224.079,180.491 224.809,180.754 224.972 C 181.260 225.284,181.297 222.595,180.816 220.600 C 180.570 219.585,180.477 219.512,180.210 220.127 M212.142 223.400 C 212.141 225.380,212.208 226.240,212.292 225.312 C 212.376 224.384,212.377 222.764,212.295 221.712 C 212.212 220.660,212.143 221.420,212.142 223.400 M180.269 226.163 C 180.151 226.471,180.307 227.055,180.615 227.461 C 181.139 228.153,181.175 228.132,181.187 227.124 C 181.201 225.924,180.602 225.297,180.269 226.163 M212.366 228.526 C 212.547 228.707,213.393 228.793,214.247 228.719 L 215.800 228.583 213.919 228.390 C 212.884 228.284,212.185 228.345,212.366 228.526 M176.291 228.689 C 177.001 228.777,178.261 228.779,179.091 228.692 C 179.921 228.605,179.340 228.533,177.800 228.531 C 176.260 228.529,175.581 228.600,176.291 228.689 M219.300 228.676 C 219.685 228.776,220.315 228.776,220.700 228.676 C 221.085 228.575,220.770 228.493,220.000 228.493 C 219.230 228.493,218.915 228.575,219.300 228.676 M191.925 229.899 C 195.514 229.966,201.274 229.966,204.725 229.899 C 208.176 229.833,205.240 229.778,198.200 229.778 C 191.160 229.779,188.336 229.833,191.925 229.899 M308.400 233.600 C 308.400 234.260,308.580 234.800,308.800 234.800 C 309.020 234.800,309.200 234.260,309.200 233.600 C 309.200 232.940,309.020 232.400,308.800 232.400 C 308.580 232.400,308.400 232.940,308.400 233.600 M232.924 235.400 C 232.926 236.720,233.001 237.212,233.090 236.493 C 233.179 235.774,233.177 234.694,233.086 234.093 C 232.995 233.492,232.922 234.080,232.924 235.400 M181.145 238.105 C 181.313 238.273,188.189 238.363,196.425 238.305 L 211.400 238.199 196.120 238.000 C 187.716 237.890,180.977 237.937,181.145 238.105 M298.000 261.776 C 298.000 264.749,298.150 266.400,298.422 266.400 C 298.930 266.400,298.846 257.676,298.335 257.360 C 298.151 257.246,298.000 259.233,298.000 261.776 M160.500 278.265 C 160.124 278.417,160.022 280.066,160.089 284.933 L 160.178 291.400 160.299 285.100 C 160.366 281.635,160.461 278.773,160.510 278.741 C 160.560 278.708,173.650 278.564,189.600 278.420 L 218.600 278.159 189.800 278.111 C 173.960 278.085,160.775 278.154,160.500 278.265 M220.105 278.287 C 220.714 278.379,221.614 278.377,222.105 278.282 C 222.597 278.187,222.100 278.111,221.000 278.114 C 219.900 278.117,219.497 278.195,220.105 278.287 M230.600 278.289 C 231.040 278.398,231.670 278.692,232.000 278.943 C 232.522 279.340,232.528 279.309,232.051 278.700 C 231.749 278.315,231.119 278.021,230.651 278.046 C 229.843 278.090,229.840 278.103,230.600 278.289 M232.000 280.600 C 231.474 281.651,232.047 291.157,232.623 290.936 C 233.260 290.691,233.429 288.800,232.814 288.800 C 232.596 288.800,232.377 286.921,232.314 284.500 C 232.251 282.135,232.110 280.380,232.000 280.600 M132.214 319.177 C 132.031 319.473,143.677 319.600,170.976 319.600 C 193.152 319.600,210.000 319.448,210.000 319.248 C 210.000 318.719,132.541 318.649,132.214 319.177 M212.600 319.218 C 215.173 319.619,249.499 319.618,252.400 319.217 C 253.610 319.049,244.700 318.911,232.600 318.910 C 220.500 318.908,211.500 319.047,212.600 319.218 M257.600 319.200 C 257.600 319.420,257.870 319.600,258.200 319.600 C 258.530 319.600,258.800 319.420,258.800 319.200 C 258.800 318.980,258.530 318.800,258.200 318.800 C 257.870 318.800,257.600 318.980,257.600 319.200 " stroke="none" fill="#a4a4a6" fill-rule="evenodd"></path><path id="path4" d="M165.300 92.676 C 165.685 92.776,166.315 92.776,166.700 92.676 C 167.085 92.575,166.770 92.493,166.000 92.493 C 165.230 92.493,164.915 92.575,165.300 92.676 M229.300 92.676 C 229.685 92.776,230.315 92.776,230.700 92.676 C 231.085 92.575,230.770 92.493,230.000 92.493 C 229.230 92.493,228.915 92.575,229.300 92.676 M221.201 105.900 C 221.217 113.105,221.224 121.118,221.215 123.706 L 221.200 128.413 220.100 128.377 C 212.533 128.134,201.600 128.479,201.600 128.961 C 201.600 129.351,202.085 129.481,203.300 129.416 C 215.811 128.747,221.525 128.712,221.660 129.303 C 221.780 129.831,221.875 129.840,222.316 129.361 C 222.739 128.901,222.730 128.800,222.269 128.800 C 221.825 128.800,221.743 128.235,221.879 126.100 C 222.343 118.826,222.192 92.800,221.685 92.800 C 221.276 92.800,221.177 95.472,221.201 105.900 M93.900 95.876 C 93.285 96.036,93.200 96.613,93.200 100.629 L 93.200 105.200 89.346 105.200 C 85.728 105.200,85.434 105.263,84.546 106.221 L 83.600 107.241 83.600 181.574 L 83.600 255.907 84.500 256.148 C 84.995 256.281,87.155 256.392,89.300 256.395 L 93.200 256.400 93.200 261.353 C 93.200 267.245,92.683 266.826,99.800 266.713 L 104.600 266.637 99.400 266.418 L 94.200 266.200 94.093 261.600 C 93.950 255.510,94.373 256.000,89.262 256.000 L 84.898 256.000 84.595 204.500 C 84.429 176.175,84.405 149.400,84.542 145.000 C 84.680 140.600,84.794 130.115,84.796 121.700 L 84.800 106.400 89.120 106.400 C 94.581 106.400,94.400 106.594,94.400 100.724 L 94.400 96.007 114.500 95.900 L 134.600 95.792 114.600 95.743 C 103.600 95.715,94.285 95.775,93.900 95.876 M246.662 95.900 C 246.560 96.065,257.934 96.200,271.938 96.200 L 297.400 96.200 297.513 100.893 C 297.650 106.623,297.519 106.502,303.422 106.325 C 305.952 106.249,307.668 106.358,307.769 106.600 C 307.861 106.820,307.951 106.595,307.968 106.100 C 308.000 105.213,307.928 105.200,303.000 105.200 L 298.000 105.200 298.000 100.880 C 298.000 98.053,297.834 96.394,297.520 96.080 C 296.976 95.536,246.996 95.359,246.662 95.900 M103.400 112.800 C 103.536 113.020,104.132 113.187,104.724 113.172 C 105.685 113.147,105.714 113.107,105.000 112.800 C 103.889 112.322,103.105 112.322,103.400 112.800 M170.950 118.850 C 171.088 119.538,171.200 122.058,171.200 124.450 L 171.200 128.800 175.776 128.800 C 178.293 128.800,180.454 128.964,180.578 129.165 C 181.006 129.857,191.467 129.709,191.467 129.010 C 191.467 128.385,190.540 128.339,175.735 128.228 C 171.243 128.194,171.661 128.749,171.563 122.689 C 171.515 119.705,171.319 117.600,171.090 117.600 C 170.867 117.600,170.807 118.133,170.950 118.850 M232.151 122.400 C 232.151 124.930,232.216 125.965,232.296 124.700 C 232.375 123.435,232.375 121.365,232.296 120.100 C 232.216 118.835,232.151 119.870,232.151 122.400 M308.195 177.800 C 308.195 210.580,308.242 223.931,308.300 207.469 C 308.358 191.006,308.358 164.186,308.300 147.869 C 308.242 131.551,308.195 145.020,308.195 177.800 M271.999 123.900 C 271.999 124.065,272.944 124.200,274.099 124.200 L 276.200 124.200 276.130 126.700 C 276.077 128.629,276.191 129.200,276.630 129.200 C 277.720 129.200,277.408 124.149,276.300 123.852 C 275.020 123.509,272.000 123.543,271.999 123.900 M133.900 127.350 C 132.494 128.431,133.201 137.200,134.694 137.200 C 135.098 137.200,135.127 137.012,134.814 136.426 C 134.586 136.001,134.400 133.751,134.400 131.426 L 134.400 127.200 139.188 127.200 L 143.976 127.200 144.107 132.201 L 144.237 137.201 144.219 132.101 L 144.200 127.000 139.400 126.906 C 135.871 126.836,134.415 126.954,133.900 127.350 M170.138 129.862 C 170.092 130.659,170.174 130.783,170.467 130.361 C 170.727 129.988,170.770 130.735,170.597 132.600 C 170.211 136.751,170.408 139.199,171.127 139.201 C 171.564 139.202,171.044 129.079,170.600 128.932 C 170.380 128.860,170.172 129.278,170.138 129.862 M216.400 139.181 L 211.400 139.400 211.289 144.900 C 211.187 149.948,211.236 150.399,211.889 150.394 C 212.409 150.389,212.462 150.300,212.087 150.062 C 211.705 149.820,211.603 148.475,211.687 144.768 L 211.800 139.800 216.394 139.686 C 218.921 139.623,221.162 139.398,221.374 139.186 C 221.586 138.974,221.679 138.836,221.580 138.881 C 221.481 138.926,219.150 139.061,216.400 139.181 M173.200 139.459 C 176.516 139.753,180.802 139.776,180.801 139.500 C 180.800 139.335,178.775 139.230,176.300 139.267 C 173.825 139.304,172.430 139.390,173.200 139.459 M191.206 140.100 C 191.200 140.837,200.892 141.220,201.339 140.500 C 201.441 140.335,199.357 140.261,196.708 140.335 C 193.007 140.438,191.812 140.346,191.551 139.935 C 191.291 139.524,191.211 139.563,191.206 140.100 M257.200 141.849 C 257.200 142.373,257.313 142.404,257.785 142.013 C 258.147 141.712,259.288 141.579,260.785 141.664 C 262.114 141.739,263.201 141.665,263.201 141.500 C 263.200 141.335,261.850 141.200,260.200 141.200 C 257.699 141.200,257.200 141.308,257.200 141.849 M170.654 150.846 C 170.034 151.570,169.952 152.261,170.088 155.646 L 170.247 159.600 165.124 159.600 C 160.836 159.600,160.000 159.698,160.000 160.200 C 160.000 161.060,169.771 161.087,170.629 160.229 C 171.058 159.799,171.200 158.508,171.200 155.042 L 171.200 150.426 175.700 150.299 L 180.200 150.171 175.789 150.086 C 171.736 150.007,171.319 150.069,170.654 150.846 M218.590 150.298 C 219.905 150.379,221.117 150.660,221.284 150.923 C 221.489 151.245,221.590 151.172,221.594 150.700 C 221.599 150.094,221.236 150.010,218.900 150.076 L 216.200 150.151 218.590 150.298 M221.660 158.857 C 221.581 160.244,221.372 160.296,216.120 160.244 C 210.467 160.188,210.747 160.689,216.468 160.867 C 221.659 161.029,221.139 160.393,221.236 166.698 C 221.280 169.601,221.444 171.896,221.600 171.800 C 221.755 171.704,221.864 169.126,221.841 166.071 L 221.800 160.517 226.900 160.710 C 231.493 160.884,232.000 160.836,232.000 160.229 C 232.000 159.626,231.472 159.567,227.016 159.677 L 222.032 159.800 221.876 158.800 L 221.720 157.800 221.660 158.857 M115.600 160.800 C 115.600 162.120,115.735 163.200,115.900 163.200 C 116.065 163.200,116.200 162.120,116.200 160.800 C 116.200 159.480,116.065 158.400,115.900 158.400 C 115.735 158.400,115.600 159.480,115.600 160.800 M120.600 160.800 C 120.600 163.314,120.647 163.411,121.573 162.825 C 122.029 162.536,122.070 162.076,121.773 160.561 C 121.235 157.819,120.600 157.949,120.600 160.800 M175.300 160.298 L 171.200 160.428 171.151 161.514 C 171.067 163.372,171.124 168.142,171.245 169.400 C 171.309 170.060,171.460 168.440,171.580 165.800 L 171.800 161.000 176.300 160.887 C 178.854 160.823,180.800 160.606,180.800 160.387 C 180.800 160.174,180.485 160.038,180.100 160.084 C 179.715 160.131,177.555 160.227,175.300 160.298 M130.500 162.265 C 130.143 162.409,130.022 163.515,130.076 166.133 L 130.151 169.800 130.376 166.200 L 130.600 162.600 134.686 162.600 C 136.933 162.600,138.463 162.478,138.086 162.328 C 137.295 162.014,131.246 161.964,130.500 162.265 M171.172 174.100 C 171.156 175.695,171.059 179.654,170.956 182.897 C 170.705 190.788,170.422 190.400,176.438 190.400 C 179.542 190.400,181.160 190.258,181.000 190.000 C 180.858 189.771,178.796 189.600,176.176 189.600 L 171.600 189.600 171.561 186.700 C 171.539 185.105,171.547 180.965,171.579 177.500 C 171.610 174.035,171.538 171.200,171.418 171.200 C 171.298 171.200,171.187 172.505,171.172 174.100 M221.334 175.200 C 221.334 176.850,221.405 177.525,221.491 176.700 C 221.578 175.875,221.578 174.525,221.491 173.700 C 221.405 172.875,221.334 173.550,221.334 175.200 M221.308 179.304 C 221.318 179.577,221.298 182.005,221.263 184.700 L 221.200 189.600 216.900 189.606 C 214.535 189.609,212.330 189.798,212.000 190.025 C 211.542 190.339,211.731 190.419,212.800 190.360 C 217.123 190.124,221.547 190.423,221.671 190.961 C 221.782 191.442,221.873 191.442,222.316 190.961 C 222.737 190.503,222.736 190.400,222.309 190.400 C 221.903 190.400,221.792 189.148,221.811 184.773 C 221.824 181.678,221.713 179.070,221.563 178.977 C 221.413 178.884,221.298 179.032,221.308 179.304 M201.845 190.328 C 201.733 190.508,202.173 190.577,202.821 190.482 C 203.470 190.387,204.000 190.240,204.000 190.155 C 204.000 189.850,202.043 190.007,201.845 190.328 M170.048 194.161 C 169.940 198.220,170.582 200.400,171.887 200.400 C 172.508 200.400,172.507 200.366,171.885 199.900 C 171.346 199.496,171.197 198.558,171.109 195.033 C 170.969 189.441,170.191 188.801,170.048 194.161 M191.232 199.312 C 191.188 200.301,201.215 200.192,201.517 199.200 C 201.665 198.716,201.598 198.696,201.170 199.100 C 200.811 199.439,199.193 199.600,196.153 199.600 C 192.938 199.600,191.609 199.458,191.465 199.100 C 191.346 198.806,191.250 198.893,191.232 199.312 M221.200 199.578 C 221.200 199.786,220.345 200.024,219.300 200.106 L 217.400 200.256 219.500 200.328 C 221.132 200.384,221.600 200.266,221.600 199.800 C 221.600 199.470,221.510 199.200,221.400 199.200 C 221.290 199.200,221.200 199.370,221.200 199.578 M178.400 200.011 C 177.571 200.286,177.686 200.335,179.076 200.295 C 179.998 200.268,180.662 200.101,180.553 199.923 C 180.315 199.539,179.755 199.562,178.400 200.011 M211.200 204.800 L 211.200 209.600 207.900 209.631 C 191.856 209.785,191.469 209.801,191.287 210.342 C 191.136 210.793,192.768 210.846,200.953 210.655 L 210.800 210.425 210.800 214.732 L 210.800 219.039 212.100 219.486 C 212.815 219.732,214.979 219.895,216.909 219.848 C 221.400 219.740,221.131 219.413,221.237 225.107 C 221.287 227.798,221.469 230.000,221.640 230.000 C 221.811 230.000,221.912 227.572,221.863 224.604 C 221.814 221.637,221.909 219.162,222.074 219.104 C 222.239 219.047,222.203 218.730,221.993 218.400 C 221.670 217.891,221.611 217.907,221.606 218.512 C 221.601 219.162,221.172 219.215,216.700 219.112 L 211.800 219.000 211.702 209.822 C 211.627 202.846,211.723 200.569,212.102 200.329 C 212.456 200.104,212.397 200.010,211.900 200.006 C 211.272 200.001,211.200 200.493,211.200 204.800 M170.470 210.436 C 169.724 211.631,169.918 219.200,170.695 219.200 C 171.140 219.200,171.222 220.156,171.123 224.163 C 171.055 226.892,171.135 229.042,171.300 228.939 C 171.465 228.837,171.600 226.783,171.600 224.376 L 171.600 220.000 175.700 219.994 C 177.955 219.991,180.070 219.813,180.400 219.600 C 180.805 219.338,179.403 219.210,176.076 219.206 L 171.153 219.200 171.276 214.399 C 171.405 209.401,171.334 209.053,170.470 210.436 M232.124 227.800 C 232.126 229.120,232.201 229.612,232.290 228.893 C 232.379 228.174,232.377 227.094,232.286 226.493 C 232.195 225.892,232.122 226.480,232.124 227.800 M171.200 234.000 L 171.200 238.400 165.567 238.400 C 157.539 238.400,157.816 239.352,165.890 239.511 L 171.514 239.621 171.575 234.611 C 171.608 231.855,171.538 229.600,171.418 229.600 C 171.298 229.600,171.200 231.580,171.200 234.000 M221.200 237.311 C 221.200 239.447,230.973 241.012,231.745 239.000 C 231.941 238.488,231.304 238.400,227.420 238.400 C 222.223 238.400,221.606 238.263,221.891 237.174 C 222.002 236.748,221.892 236.400,221.647 236.400 C 221.401 236.400,221.200 236.810,221.200 237.311 M298.125 256.314 C 297.813 256.513,297.607 258.283,297.525 261.471 C 297.456 264.141,297.535 266.242,297.700 266.139 C 297.865 266.037,298.000 263.938,297.999 261.476 L 297.999 257.000 302.999 257.133 C 307.348 257.248,308.000 257.183,308.000 256.633 C 308.000 255.948,299.149 255.663,298.125 256.314 M134.500 302.296 C 135.765 302.375,137.835 302.375,139.100 302.296 C 140.365 302.216,139.330 302.151,136.800 302.151 C 134.270 302.151,133.235 302.216,134.500 302.296 M203.977 302.300 C 248.309 302.381,260.221 302.508,260.471 302.901 C 260.696 303.256,260.790 303.198,260.794 302.700 C 260.800 302.036,257.882 302.005,204.300 302.099 L 147.800 302.197 203.977 302.300 M131.300 302.699 C 130.261 303.047,130.623 317.430,131.689 318.177 C 132.486 318.736,139.179 318.790,196.389 318.702 L 260.200 318.604 196.200 318.402 L 132.200 318.200 132.000 310.366 C 131.846 304.345,131.684 302.571,131.300 302.699 " stroke="none" fill="#ccccce" fill-rule="evenodd"></path></g></svg>