<svg viewBox="0 0 72 72" xmlns="http://www.w3.org/2000/svg"><path d="m34.134 16.5 1.732-1" fill="none" stroke="#000" stroke-linecap="round" stroke-linejoin="round" stroke-width="2"/><path d="m27.866 25.5-1.732-1" fill="none" stroke="#000" stroke-linecap="round" stroke-linejoin="round" stroke-width="2"/><path d="m36.866 35.5-1.732-1" fill="none" stroke="#000" stroke-linecap="round" stroke-linejoin="round" stroke-width="2"/><path d="m45.5 26.866-1-1.732" fill="none" stroke="#000" stroke-linecap="round" stroke-linejoin="round" stroke-width="2"/><path d="m34.5 27.866 1-1.732" fill="none" stroke="#000" stroke-linecap="round" stroke-linejoin="round" stroke-width="2"/><path d="m41.5 18.866-1-1.732" fill="none" stroke="#000" stroke-linecap="round" stroke-linejoin="round" stroke-width="2"/><path d="m23.5 35.866-1-1.732" fill="none" stroke="#000" stroke-linecap="round" stroke-linejoin="round" stroke-width="2"/><path d="m29 40h2" fill="none" stroke="#000" stroke-linecap="round" stroke-linejoin="round" stroke-width="2"/><path d="m47.5 36.866 1-1.732" fill="none" stroke="#000" stroke-linecap="round" stroke-linejoin="round" stroke-width="2"/><path d="m41.134 39.5 1.732-1" fill="none" stroke="#000" stroke-linecap="round" stroke-linejoin="round" stroke-width="2"/><path d="m59.0314 43.6287a2 2 0 1 0 -2-3.4641l-21.0314-.1646-21.01.1646a2.1507 2.1507 0 0 0 -2.732.732 2.1509 2.1509 0 0 0 .732 2.7321l23.01 13.3713z" fill="#a57939" stroke="#a57939" stroke-miterlimit="10" stroke-width="2"/><path d="m56 46c-4 0-8 13-8 21h-24c0-8-4-21-8-21h5l3 2 3-2 3 2 3-2 3 2 3-2 3 2 3-2 3 2 3-2z" fill="#92d3f5"/><g stroke-width="2"><path d="m50 42c3.8461-1.0989 6-3 6-7 0-2-3-4-3-4s-1.9145-1.958-1.3566-3.2038c.3566-.7962-31.6434-.6353-31.6434.2038 0 1-2 2-2 2s-3 0-3 4c0 7 6.8643 7.4661 13 9 4 1 5-1 10-1 4 0 5 2 12 0z" fill="#ffa7c0" stroke="#ffa7c0" stroke-miterlimit="10"/><path d="m24.0517 20.6591c-2.2758 0-4.5517 2.46-4.5517 4.31 0 2.2069 1.1379 5.4138 10.2414 5.4138l10.2414.1034c10.2413 0 12.5172-2.1034 12.5172-4.31s-3.4138-3.2063-3.4138-3.2063c-1.2268-.97-2.2581-1.97-1.1379-4.6212-.0859-2.2688-6.3762-4.2728-6.8047-7.39a1.42 1.42 0 0 0 -.21-.6111l-1.9336-5.3477c-.1265 6.6629-12.6724 7.8315-12.6724 12.2453 0 0 0 3.4138-2.2759 3.4138z" fill="#ffa7c0" stroke="#ffa7c0" stroke-linecap="round" stroke-linejoin="round"/><path d="m34.134 16.5 1.732-1" fill="#61b2e4" stroke="#61b2e4" stroke-linecap="round" stroke-linejoin="round"/><path d="m27.866 25.5-1.732-1" fill="#61b2e4" stroke="#d22f27" stroke-linecap="round" stroke-linejoin="round"/><path d="m36.866 35.5-1.732-1" fill="#61b2e4" stroke="#5c9e31" stroke-linecap="round" stroke-linejoin="round"/><path d="m45.5 26.866-1-1.732" fill="#61b2e4" stroke="#5c9e31" stroke-linecap="round" stroke-linejoin="round"/><path d="m34.5 27.866 1-1.732" fill="#61b2e4" stroke="#fcea2b" stroke-linecap="round" stroke-linejoin="round"/><path d="m41.5 18.866-1-1.732" fill="#61b2e4" stroke="#8967aa" stroke-linecap="round" stroke-linejoin="round"/><path d="m23.5 35.866-1-1.732" fill="#5c9e31" stroke="#61b2e4" stroke-linecap="round" stroke-linejoin="round"/><path d="m29 40h2" fill="#61b2e4" stroke="#e27022" stroke-linecap="round" stroke-linejoin="round"/><path d="m47.5 36.866 1-1.732" fill="#61b2e4" stroke="#d22f27" stroke-linecap="round" stroke-linejoin="round"/><path d="m41.134 39.5 1.732-1" fill="#61b2e4" stroke="#fcea2b" stroke-linecap="round" stroke-linejoin="round"/><path d="m39 5c-.1265 6.6629-12.6724 7.8315-12.6724 12.2453 0 2.2069 3.4138 2.2069 5.69 2.2069" fill="none" stroke="#000" stroke-linecap="round" stroke-linejoin="round"/><path d="m41.1207 10.6246c0 3.31 6.8276 5.5173 6.8276 7.7242s-4.49 4.6339-11.3793 4.31" fill="none" stroke="#000" stroke-linecap="round" stroke-linejoin="round"/><path d="m24.0517 20.6591c-2.2758 0-4.5517 2.46-4.5517 4.31 0 2.2069 1.1379 5.4138 10.2414 5.4138" fill="none" stroke="#000" stroke-linecap="round" stroke-linejoin="round"/><path d="m39.9828 30.4867c10.2413 0 12.5172-2.1034 12.5172-4.31s-3.4138-3.2067-3.4138-3.2067" fill="none" stroke="#000" stroke-linecap="round" stroke-linejoin="round"/><path d="m56 46c-4 0-8 13-8 21h-24c0-8-4-21-8-21" fill="none" stroke="#000" stroke-linecap="round" stroke-linejoin="round"/><path d="m21 46 2.1679 1.4453a1.6273 1.6273 0 0 0 1.6642 0l1.3358-.8906a1.6273 1.6273 0 0 1 1.6642 0l1.3358.8906a1.6273 1.6273 0 0 0 1.6642 0l1.3358-.8906a1.6273 1.6273 0 0 1 1.6642 0l1.3358.8906a1.6273 1.6273 0 0 0 1.6642 0l1.3358-.8906a1.6273 1.6273 0 0 1 1.6642 0l1.3358.8906a1.6273 1.6273 0 0 0 1.6642 0l1.3358-.8906a1.6273 1.6273 0 0 1 1.6642 0l1.3358.8906a1.6273 1.6273 0 0 0 1.6642 0l2.1679-1.4453" fill="none" stroke="#000" stroke-linecap="round" stroke-linejoin="round"/><path d="m18 30s-3 0-3 4c0 3 3 8 9 8" fill="none" stroke="#000" stroke-linecap="round" stroke-linejoin="round"/><path d="m57.0314 40.1646a2 2 0 1 1 2 3.4641" fill="none" stroke="#000" stroke-linecap="round" stroke-linejoin="round"/><path d="m14.99 40.1646a2.1507 2.1507 0 0 0 -2.732.732 2.1509 2.1509 0 0 0 .732 2.7321" fill="none" stroke="#000" stroke-linecap="round" stroke-linejoin="round"/><path d="m53 31s3 1 3 4-2 7-6 7" fill="none" stroke="#000" stroke-linecap="round" stroke-linejoin="round"/></g></svg>