<svg viewBox="0 0 64 64" xmlns="http://www.w3.org/2000/svg"><circle cx="32" cy="35" fill="#e5efef" r="23"/><path d="m9 8v2" fill="none" stroke="#4c241d" stroke-linecap="round" stroke-linejoin="round" stroke-width="2"/><path d="m9 14v2" fill="none" stroke="#4c241d" stroke-linecap="round" stroke-linejoin="round" stroke-width="2"/><path d="m5 12h2" fill="none" stroke="#4c241d" stroke-linecap="round" stroke-linejoin="round" stroke-width="2"/><path d="m11 12h2" fill="none" stroke="#4c241d" stroke-linecap="round" stroke-linejoin="round" stroke-width="2"/><circle cx="54.5" cy="32.5" fill="none" r="2.5" stroke="#4c241d" stroke-linecap="round" stroke-linejoin="round" stroke-width="2"/><path d="m8.082 28.667a1.069 1.069 0 1 1 -1.069-1.067 1.07 1.07 0 0 1 1.069 1.067z" fill="#4c241d"/><path d="m57.151 51.6a1.069 1.069 0 1 1 -1.069-1.069 1.069 1.069 0 0 1 1.069 1.069z" fill="#4c241d"/><g stroke="#4c241d" stroke-linecap="round" stroke-linejoin="round" stroke-width="2"><path d="m20.764 30.577a5.627 5.627 0 0 0 -3.689 5.268c-.016 2.429-.023 5.2-.023 5.57 0 10.185 6.055 18.442 13.524 18.442s13.524-8.257 13.524-18.442c0-.365-.008-3.144-.023-5.574a5.626 5.626 0 0 0 -3.691-5.268 28.151 28.151 0 0 0 -19.622.004z" fill="#fff"/><path d="m31.93 50.762c.071-.522 1.1-1.058 1.757-.97l1.9.257a1.2 1.2 0 0 0 1.346-1.025" fill="none"/><path d="m29.07 50.762c-.071-.522-1.1-1.058-1.757-.97l-1.9.257a1.2 1.2 0 0 1 -1.347-1.025" fill="none"/><path d="m32.9 26.356 3.558.274a9.618 9.618 0 0 1 8.733 11.26l-1.253 7.1a1.134 1.134 0 0 1 -1.116.936 1.133 1.133 0 0 1 -1.13-1.22l.478-6.214a7.749 7.749 0 0 0 -6.045-8.158l-3.225-.716z" fill="#bf7e68"/><path d="m36.165 27.444s-3.312 9.056-16.309 7.256l-.974 9.086a1.183 1.183 0 0 1 -1.176 1.057 1.183 1.183 0 0 1 -1.181-1.109l-.657-10.5a4 4 0 0 1 3.988-4.334 4.72 4.72 0 0 1 4.72-4.72h8.324a3.262 3.262 0 0 1 3.262 3.262z" fill="#bf7e68"/><path d="m48.106 9.245a3.462 3.462 0 0 0 -5.383-2.908 4.609 4.609 0 0 0 -6.74-1.119 3.461 3.461 0 0 0 -6.024.983l-.051-.011a4.624 4.624 0 1 0 -1.515 9.124 4.571 4.571 0 0 0 1.165.04l-1.158 6.993 15.4 2.553 1.161-6.993a4.622 4.622 0 1 0 3.15-8.666z" fill="#fff"/><path d="m33.624 19.4-1.16 8.117a21.457 21.457 0 0 0 5.575.86l1.151-8.052z" fill="#fff"/><path d="m29.014 18.633-1.137 6.843a18.991 18.991 0 0 0 4.587 2.039l1.16-8.117z" fill="#9dc1e4"/><path d="m39.19 20.323-1.151 8.052a28.31 28.31 0 0 0 5.236-.342l1.137-6.843z" fill="#f53e28"/></g></svg>