<?xml version="1.0" standalone="no"?>
<!DOCTYPE svg PUBLIC "-//W3C//DTD SVG 20010904//EN"
 "http://www.w3.org/TR/2001/REC-SVG-20010904/DTD/svg10.dtd">
<svg version="1.0" xmlns="http://www.w3.org/2000/svg"
 width="500.000000pt" height="455.000000pt" viewBox="0 0 500.000000 455.000000"
 preserveAspectRatio="xMidYMid meet">

<g transform="translate(0.000000,455.000000) scale(0.100000,-0.100000)"
fill="#000000" stroke="none">
<path d="M760 3940 c-140 -9 -255 -27 -289 -43 -26 -12 -42 -57 -22 -57 17 0
13 -27 -5 -34 -9 -3 -36 -6 -60 -6 -51 0 -84 -14 -84 -35 0 -17 146 -92 327
-169 70 -30 283 -130 473 -224 190 -93 422 -202 515 -242 l170 -73 144 -136
c79 -75 218 -214 308 -309 l163 -172 -40 -80 c-54 -107 -220 -396 -284 -495
-29 -44 -94 -136 -145 -204 -108 -147 -167 -257 -157 -296 10 -38 85 -115 134
-137 42 -19 42 -19 82 3 23 13 72 61 111 108 135 164 289 328 397 425 60 53
142 135 183 181 41 47 89 92 107 102 31 17 35 17 85 0 28 -10 122 -52 207 -94
l155 -76 120 -121 c67 -66 246 -263 399 -436 154 -173 344 -380 423 -459 79
-80 158 -162 174 -183 20 -25 39 -38 54 -38 22 0 55 -32 134 -130 19 -24 21
-24 37 -8 16 16 17 24 7 70 -6 29 -9 55 -7 57 1 2 15 -6 30 -18 28 -22 59 -27
68 -12 18 29 -117 591 -234 971 -84 271 -238 659 -351 881 -51 99 -71 127
-132 186 -40 37 -107 91 -149 118 -43 28 -111 71 -152 97 -112 72 -127 119
-80 256 21 61 26 95 26 161 -1 100 6 114 56 105 l35 -7 -21 31 c-37 51 -94 72
-201 72 -107 0 -206 -28 -305 -88 -66 -39 -133 -51 -188 -33 -50 16 -107 69
-197 180 -79 97 -194 214 -242 244 -45 29 -474 111 -799 153 -143 18 -787 28
-980 14z m1410 -144 c63 -10 156 -26 205 -38 107 -24 117 -33 262 -228 118
-159 163 -244 170 -318 5 -57 4 -58 -66 -166 -39 -60 -119 -194 -177 -298 -59
-103 -111 -191 -117 -195 -11 -7 -80 63 -336 341 -203 220 -232 241 -499 367
-216 102 -574 283 -662 334 -35 21 -75 49 -88 62 -23 23 -23 25 -6 44 10 11
40 26 68 34 64 18 308 50 491 65 77 5 158 12 180 14 95 9 467 -3 575 -18z
m1399 -356 c26 -13 16 -60 -13 -60 -11 -1 -32 -7 -46 -15 -35 -20 -62 -19 -32
2 15 11 22 26 22 49 0 30 3 34 26 34 14 0 33 -4 43 -10z m-154 -60 c-23 -26
-67 -26 -90 0 -22 24 -5 27 29 5 22 -14 25 -14 40 0 9 9 16 22 16 28 0 8 3 8
12 -1 9 -9 7 -16 -7 -32z m165 -112 c0 -35 -9 -97 -21 -138 -12 -41 -30 -106
-41 -145 -28 -101 -80 -203 -147 -292 -89 -117 -589 -607 -776 -760 -88 -71
-174 -138 -192 -147 -18 -9 -52 -16 -78 -16 l-45 0 0 38 c0 62 34 177 93 317
30 72 81 193 112 270 86 210 197 429 273 534 71 101 246 285 280 295 12 4 34
0 51 -8 52 -27 66 -22 67 25 1 27 9 48 22 61 18 19 24 20 51 8 33 -13 61 -49
61 -79 0 -20 18 -31 50 -31 11 0 43 21 71 46 53 47 119 83 152 84 14 0 17 -10
17 -62z m213 -643 c215 -103 210 -97 322 -359 122 -286 196 -569 254 -971 38
-256 37 -396 -1 -403 -21 -4 -112 67 -269 212 -144 132 -182 173 -425 461
-198 235 -308 352 -354 375 -21 10 -106 46 -190 80 -174 69 -230 96 -230 110
0 24 494 434 638 530 42 27 77 50 78 50 0 0 80 -38 177 -85z m-1443 -469 c0
-2 -9 -26 -21 -53 -11 -26 -38 -109 -59 -184 -20 -75 -43 -146 -49 -157 -25
-46 -97 -33 -122 22 -13 27 -10 33 82 176 84 131 137 200 154 200 8 0 15 -2
15 -4z m90 -395 c0 -10 -79 -84 -133 -125 -29 -23 -41 -26 -50 -17 -22 22 14
64 93 109 77 43 90 48 90 33z m-352 -141 c1 -3 -8 -16 -21 -28 l-24 -22 -34
23 c-40 27 -47 49 -24 83 l16 25 42 -37 c23 -21 43 -41 45 -44z m105 -122
c-17 -16 -24 -18 -41 -9 -30 16 -37 49 -17 71 17 19 18 18 48 -11 l30 -30 -20
-21z m-204 5 c7 -5 -32 -43 -44 -43 -6 0 -24 13 -40 30 -27 29 -28 30 -11 56
l18 26 36 -33 c20 -19 39 -35 41 -36z m83 -72 c8 -10 21 -20 28 -23 10 -3 10
-9 1 -26 -15 -28 -23 -28 -57 1 -23 20 -25 26 -15 45 14 27 22 27 43 3z m-228
-74 c17 -18 50 -48 74 -68 36 -29 41 -37 29 -47 -11 -10 -25 -4 -69 28 -61 44
-91 81 -82 104 9 22 13 20 48 -17z"/>
</g>
</svg>
