<svg viewBox="0 0 72 72" xmlns="http://www.w3.org/2000/svg"><path d="m39.4008 29.5206c-2.6372-2.2167-2.5537-3.5214-2.5514-3.5238-.1082-.127-1.757-1.6761-1.776-2.1562-.0031-.029-.0066-.0621-.0089-.0814l-2.5567 3.2828c.3242-.4463-6.3214 10.4061-6.3214 10.4061l-11.7934 16.2378 3.3726 3.3726s24.4145-21.2772 24.0619-20.8977l3.4038-3.3554c-.1071.0032-3.1932-1.068-5.8305-3.2848z" fill="#3f3f3f"/><path d="m54.6201 30.1797c-.1982.2256-.4746.3408-.7519.3408-.2344 0-.4698-.082-.6592-.248l-16.6192-14.5801c-.4113-.361-.4536-.9837-.0998-1.3993-.0028.0032-.0068.0044-.0095.0077l-.6543.7866c-.3467.417-.2989 1.0337.1093 1.3911l16.6192 14.5811c.1826.1601.417.248.6592.248.0263 0 .0527-.001.0781-.0029.2695-.0215.5185-.1504.6904-.3574l.6543-.7871c.0397-.0477.0553-.1048.0847-.157-.0334.0592-.0546.1233-.1013.1765z" fill="#d0cfce"/><path d="m55.2582 25.541c-1.1619 3.3997-5.2831 5.5623-5.2831 5.5623-1.9265 1.0963-4.0318 1.6194-6.0378 1.5188 0 0-.3476-.0805-.9137-.2716-1.8272-.6337-5.8491-2.4844-7.2494-6.8799-.3774-2.0016-.1589-4.1843.6455-6.2764 1.0228-4.2647 4.9951-6.2563 4.9951-6.2563 1.4102-.9556 2.9395-1.5892 4.4787-1.8709 2.8203-.5331 5.6605.0805 7.7757 1.9715 3.3269 2.9471 3.8433 8.0869 1.589 12.5025z" fill="#3f3f3f"/><path d="m51.4746 25.541c-1.1718 3.3997-5.2831 5.5623-5.2831 5.5623-1.0228.5733-2.0854.9958-3.1679 1.2472-1.8272-.6337-5.8491-2.4844-7.2494-6.8799-.3774-2.0016-.1589-4.1843.6455-6.2764 1.0228-4.2647 4.9951-6.2563 4.9951-6.2563 1.4102-.9556 2.9395-1.5892 4.4787-1.8709 1.4598.2917 2.8303.9455 3.9921 1.9715 3.317 2.9471 3.8334 8.0869 1.589 12.5025z" fill="#9b9b9a"/><g style="fill:none;stroke:#000;stroke-linecap:round;stroke-linejoin:round;stroke-miterlimit:10;stroke-width:2"><path d="m30.7498 38.9407 4.0206-4.6182"/><path d="m49.514 30.4299c-1.8043 1.0136-3.7741 1.4947-5.6491 1.4045"/><path d="m41.5036 13.6508c3.7376-2.4981 8.4052-2.5922 11.4654.0926 3.1081 2.7269 3.5898 7.4706 1.4886 11.5445"/><path d="m36.235 25.2234c-.3538-1.8443-.1517-3.8622.602-5.7893"/><path d="m33.3173 27.63-18.9243 26.0559 3.3726 3.3726 23.3397-21.572"/><path d="m15.4968 56.0006-3.0461 3.074"/><path d="m53.8679 29.5206-16.6189-14.5802"/></g></svg>