<svg fill="none" height="32" viewBox="0 0 32 32" width="32" xmlns="http://www.w3.org/2000/svg"><path d="m7.07926 6.459c.52001-.90114 1.49147-1.459 2.53595-1.459h12.76999c1.0351 0 2.0128.54007 2.5376 1.46174l5.8105 10.05126c.5568.9737.2103 2.1733-.7033 2.7364l-.0131.0081-3.7282 2.1426-.0028.0017c-.5689.3303-1.2276.346-1.7859.1102v4.8286c0 .8925-.7132 1.6594-1.6548 1.6594h-13.67997c-.89121 0-1.66523-.7166-1.66523-1.6594v-4.8284c-.55832.2356-1.21706.2198-1.78588-.1106l-.00242-.0015-3.70578-2.1355-.00421-.0024c-.94586-.5513-1.294416-1.7775-.73141-2.7446l.00136-.0023zm12.01254.541-3.0918 6.57-3.0918-6.57h-1.9341l4.0589 8.625-.2353.5h1.9341l4.2941-9.125zm-1.2549 9.125h4.6631v-1.2298l.8662 1.4913c.0325.0428.0598.0898.0812.1399l1.8214 3.1359.0015.0022.0023.0023.0023.0014.0032.0015.0026.0009.0028.0005.0034-.002 3.6983-2.1254c.0085-.0066.0128-.0142.0147-.0213.001-.004.0008-.0077.0008-.0077s-.0003-.0029-.0031-.008l-5.8122-10.05421c-.1559-.27475-.4567-.45249-.8002-.45249h-.2541zm-4.0416 0c.0007-.1433.0322-.287.0952-.4208l.0373-.0792-4.05886-8.625h-.25373c-.33535 0-.64371.1813-.80376.45876l-5.81123 10.06254.00037.0016c.00083.003.00222.0057.00353.0074 0 0 .0018.0022.00402.0035l3.70881 2.1373.00281-.0005c.00337-.0009.0062-.0024.00804-.0038l.00236-.0024.00149-.0021 2.76835-4.7991v1.2618zm-4.2953 9.875h13v-8.125h-4.4741l1.7658 3.7524c.2058.4373.0181.9586-.4191 1.1643-.4373.2058-.9585.0181-1.1643-.4191l-2.1165-4.4976h-.1836l-2.1165 4.4976c-.2057.4372-.727.6249-1.1643.4191-.4372-.2057-.6249-.727-.4191-1.1643l1.7658-3.7524h-4.4741z" fill="#212121"/></svg>